<svg xmlns="http://www.w3.org/2000/svg" xmlns:xlink="http://www.w3.org/1999/xlink" version="1.1" x="0px" y="0px" width="281.255px" height="179.991px" viewBox="0 0 281.255 179.991" enable-background="new 0 0 281.255 179.991" xml:space="preserve"><g></g><g><g><path fill="#55767F" d="M134.389 50.106c0 17.256-14.001 31.252-31.254 31.252c-17.247 0-31.248-13.996-31.248-31.252 c0-17.254 14.001-31.25 31.248-31.25C120.388 18.9 134.4 32.9 134.4 50.106z"/><path fill="#59595A" d="M167.96 152.329c-6.539 5.486-15.829 5.182-20.753-0.689l0 0c-4.923-5.863-3.61-15.066 2.929-20.555 l64.419-54.055c6.539-5.486 15.828-5.178 20.7 0.691l0 0c4.927 5.9 3.6 15.066-2.921 20.553L167.96 152.329z"/><path fill="#59595A" d="M276.31 135.229c4.892 7 3.8 16.217-2.494 20.609l0 0c-6.271 4.395-15.329 2.287-20.224-4.705 l-38.595-55.119c-4.896-6.992-3.774-16.221 2.495-20.611l0 0c6.274-4.393 15.325-2.285 20.2 4.705L276.31 135.229z"/><path fill="#59595A" d="M11.66 115.429c10.366-7.256 24.657-4.74 31.9 5.625c7.261 10.4 4.7 24.65-5.624 31.9 c-10.363 7.26-24.654 4.742-31.912-5.623C-1.216 137 1.3 122.7 11.7 115.429z"/><path fill="#FFFFFF" d="M81.743 136.79c-3.62 7.764-13.037 11.043-21.034 7.314l0 0c-7.991-3.727-11.539-13.051-7.917-20.814 l28.559-61.244c3.621-7.77 13.04-11.045 21.035-7.316l0 0c7.997 3.7 11.5 13.1 7.9 20.816L81.743 136.79z"/><path fill="#59595A" d="M79.976 133.952c-3.426 7.346-11.547 10.812-18.143 7.74l0 0c-6.588-3.074-9.158-11.527-5.731-18.873 l27.017-57.936c3.424-7.35 11.549-10.812 18.141-7.74l0 0c6.596 3.1 9.2 11.5 5.7 18.875L79.976 133.952z"/><path fill="#59595A" d="M156.143 117.163c10.588 0 19.2 7.8 19.2 19.088v0.365c0 11.322-8.58 20.502-19.168 20.502H69.475 c-10.589 0-19.165-9.18-19.165-20.502v-1.777c0-11.322 8.576-20.5 19.165-20.5L156.143 117.163z"/></g></g></svg>