<svg xmlns="http://www.w3.org/2000/svg" xmlns:xlink="http://www.w3.org/1999/xlink" version="1.1" x="0px" y="0px" width="210px" height="226.488px" viewBox="0 0 210 226.488" enable-background="new 0 0 210 226.488" xml:space="preserve"><g></g><g><g><g><path fill="#808285" d="M26.269 109.425c6.162-19.456 20.264-35.511 39.691-45.216c5.419-2.703 11.074-4.794 16.862-6.295 l-6.799-16.175c-1.983-4.708 0.93-10.137 6.596-13.021l-5.063-12.033c-1.126-2.683 0.58-5.733 3.81-6.816l6.994-2.338 c3.231-1.084 6.8 0.2 7.9 2.902l4.991 11.891c7.055-2.101 14.4 0.2 16.6 5.439l18.961 45.1 c2.245 5.338-1.792 11.625-9.021 14.043l7.598 18.059c1.325 3.164-1.09 6.898-5.407 8.341c-4.315 1.442-8.89 0.045-10.215-3.115 l-7.595-18.062c-7.227 2.421-14.896 0.051-17.141-5.281l-4.88-11.607c-4.837 1.127-9.569 2.768-14.083 5 c-14.626 7.303-25.249 19.436-29.92 34.164c-4.67 14.726-2.724 30 5.5 43.082c7.348 11.7 19 20.2 33 24.2 l19.251-0.013c-0.292-1.666-0.168-3.634 0.485-5.752l5.131-16.763c1.481-4.836 3.739-12.193 5.492-17.922l18.94-0.011 c1.764 5.7 4 13.1 5.5 17.915l5.159 16.756c0.646 2.1 0.8 4.1 0.5 5.753l23.433-0.014 c10.244-0.005 18.6 7.4 18.6 16.533l0.004 4.59c0.005 9.14-8.293 16.547-18.536 16.553l-88.075 0.1 c-10.243 0.007-18.553-7.392-18.559-16.53l-0.004-4.59c0-1.792 0.328-3.516 0.919-5.132 c-12.054-6.257-22.103-15.358-29.172-26.623C22.704 149.1 20.1 128.9 26.3 109.425z"/><path fill="#59595A" d="M61.83 198.22c0-1.792 0.328-3.516 0.919-5.132c-12.054-6.257-22.103-15.358-29.172-26.623 c-10.873-17.332-13.471-37.592-7.309-57.04c6.162-19.456 20.264-35.511 39.691-45.216c5.419-2.703 11.074-4.794 16.862-6.295 l-6.799-16.175c-1.983-4.708 0.93-10.137 6.596-13.021l-5.063-12.033c-1.126-2.683 0.58-5.733 3.81-6.816l6.994-2.338 c3.231-1.084 6.8 0.2 7.9 2.902l4.991 11.891c7.055-2.101 14.4 0.2 16.6 5.439l18.961 45.1 c2.245 5.338-1.792 11.625-9.021 14.043l7.598 18.059c1.325 3.164-1.09 6.898-5.407 8.341c-4.315 1.442-8.89 0.045-10.215-3.115 l-7.595-18.062c-7.227 2.421-14.896 0.051-17.141-5.281l-4.88-11.607c-4.837 1.127-9.569 2.768-14.083 5 c-14.626 7.303-25.249 19.436-29.92 34.164c-4.67 14.726-2.724 30 5.5 43.082c7.348 11.7 19 20.2 33 24.2 l19.251-0.013c-0.292-1.666-0.168-3.634 0.485-5.752l5.131-16.763c1.481-4.836 3.739-12.193 5.492-17.922l18.94-0.011 c1.764 5.7 4 13.1 5.5 17.915l3.668 11.909l-48.253 48.306l-14.387 0.008c-10.243 0.007-18.553-7.392-18.559-16.53 L61.83 198.22z"/><path fill="#55767F" d="M78.542 141.926c0.002 3.7 3.3 6.7 7.5 6.657l76.748-0.046c4.125-0.002 7.47-2.983 7.47-6.665 l0 0c-0.004-3.682-3.353-6.662-7.478-6.66l-76.751 0.044C81.881 135.3 78.5 138.2 78.5 141.926L78.542 141.926z"/><path fill="#808285" d="M117.802 27.763l18.961 45.094c2.245 5.338-1.792 11.625-9.021 14.043l7.598 18.1 c1.325 3.164-1.09 6.898-5.407 8.341c-0.042 0.015-0.089 0.024-0.134 0.039L84.495 8.823l3.864-1.293 c3.231-1.084 6.8 0.2 7.9 2.902l4.991 11.891C108.305 20.2 115.6 22.6 117.8 27.763z"/><path fill="#808285" d="M116.044 115.659c0.534 1.3 2.7 1.7 4.8 1.032l18.424-6.163c2.117-0.713 3.397-2.322 2.859-3.604 l0 0c-0.535-1.279-2.689-1.741-4.811-1.032l-18.421 6.162C116.789 112.8 115.5 114.4 116 115.659L116.044 115.659z"/></g><circle fill="#55767F" cx="85" cy="199.2" r="17.1"/><path fill="#D4544D" d="M76.432 199.236c0.002 4.7 3.8 8.6 8.6 8.567c4.735-0.003 8.571-3.843 8.569-8.578 c-0.007-4.736-3.845-8.569-8.58-8.567C80.266 190.7 76.4 194.5 76.4 199.236z"/><circle fill="#55767F" cx="83" cy="72" r="13.8"/><circle fill="#D4544D" cx="83" cy="72" r="6.9"/></g></g></svg>