<svg xmlns="http://www.w3.org/2000/svg" xmlns:xlink="http://www.w3.org/1999/xlink" version="1.1" x="0px" y="0px" width="241.905px" height="220.486px" viewBox="0 0 241.905 220.486" enable-background="new 0 0 241.905 220.486" xml:space="preserve"><g></g><g><g><path fill="#808285" d="M91.961 95.3c10.688 0 19.377-8.678 19.377-19.365c0-10.678-8.689-19.359-19.377-19.359 c-10.668 0-19.357 8.682-19.357 19.359C72.604 86.6 81.3 95.3 92 95.3z M91.961 61 c8.242 0 14.9 6.7 14.9 14.936c0 8.234-6.699 14.935-14.941 14.935c-8.234 0-14.934-6.692-14.934-14.935 C77.027 67.7 83.7 61 92 61.007z"/><path fill="#59595A" d="M87.58 83.806c0.43 0.4 1 0.6 1.6 0.648c0.562 0 1.127-0.219 1.566-0.648l10.525-10.534 c0.867-0.861 0.867-2.268 0-3.126c-0.869-0.868-2.266-0.868-3.135 0l-8.957 8.958l-3.861-3.861c-0.867-0.868-2.275-0.868-3.135 0 c-0.869 0.868-0.869 2.3 0 3.137L87.58 83.806z"/><path fill="#808285" d="M115.846 73.919h40.807c1.23 0 2.217-0.992 2.217-2.207c0-1.223-0.986-2.216-2.217-2.216h-40.807 c-1.223 0-2.209 0.993-2.209 2.216C113.637 72.9 114.6 73.9 115.8 73.919z"/><path fill="#808285" d="M115.846 83.367h40.807c1.23 0 2.217-0.995 2.217-2.217c0-1.214-0.986-2.207-2.217-2.207h-40.807 c-1.223 0-2.209 0.993-2.209 2.207C113.637 82.4 114.6 83.4 115.8 83.367z"/><path fill="#808285" d="M91.961 134.381c10.688 0 19.377-8.69 19.377-19.368s-8.689-19.365-19.377-19.365 c-10.668 0-19.357 8.688-19.357 19.365S81.293 134.4 92 134.381z M91.961 100.079c8.242 0 14.9 6.7 14.9 14.9 c0 8.233-6.699 14.935-14.941 14.935c-8.234 0-14.934-6.701-14.934-14.935C77.027 106.8 83.7 100.1 92 100.079z"/><path fill="#59595A" d="M87.58 122.877c0.43 0.4 1 0.6 1.6 0.649c0.562 0 1.127-0.22 1.566-0.649l10.525-10.526 c0.867-0.877 0.867-2.268 0-3.135c-0.869-0.868-2.266-0.868-3.135 0l-8.957 8.958l-3.861-3.861c-0.867-0.867-2.275-0.867-3.135 0 c-0.869 0.86-0.869 2.3 0 3.128L87.58 122.877z"/><path fill="#808285" d="M115.846 113h40.807c1.23 0 2.217-0.987 2.217-2.217c0-1.224-0.986-2.216-2.217-2.216h-40.807 c-1.223 0-2.209 0.992-2.209 2.216C113.637 112 114.6 113 115.8 113z"/><path fill="#808285" d="M115.846 122.438h40.807c1.23 0 2.217-0.986 2.217-2.218c0-1.222-0.986-2.207-2.217-2.207h-40.807 c-1.223 0-2.209 0.985-2.209 2.207C113.637 121.5 114.6 122.4 115.8 122.438z"/><path fill="#808285" d="M91.961 173.459c10.688 0 19.377-8.688 19.377-19.366c0-10.678-8.689-19.367-19.377-19.367 c-10.668 0-19.357 8.689-19.357 19.367C72.604 164.8 81.3 173.5 92 173.459z M91.961 139.2 c8.242 0 14.9 6.7 14.9 14.936s-6.699 14.934-14.941 14.934c-8.234 0-14.934-6.7-14.934-14.934 S83.727 139.2 92 139.157z"/><path fill="#59595A" d="M87.58 161.956c0.43 0.4 1 0.6 1.6 0.648c0.562 0 1.127-0.22 1.566-0.648l10.525-10.527 c0.867-0.876 0.867-2.268 0-3.134c-0.869-0.868-2.266-0.868-3.135 0l-8.957 8.958l-3.861-3.867c-0.867-0.86-2.275-0.86-3.135 0 c-0.869 0.876-0.869 2.3 0 3.133L87.58 161.956z"/><path fill="#808285" d="M115.846 152.078h40.807c1.23 0 2.217-0.995 2.217-2.218c0-1.22-0.986-2.215-2.217-2.215h-40.807 c-1.223 0-2.209 0.995-2.209 2.215C113.637 151.1 114.6 152.1 115.8 152.078z"/><path fill="#808285" d="M115.846 161.525h40.807c1.23 0 2.217-1.003 2.217-2.216c0-1.238-0.986-2.218-2.217-2.218h-40.807 c-1.223 0-2.209 0.979-2.209 2.218C113.637 160.5 114.6 161.5 115.8 161.525z"/><path fill="#55767F" d="M56.379 194.26c0 1.2 1 2.2 2.2 2.208h25.299c11.682 5.4 24.1 8.1 37.1 8.1 c12.92 0 25.393-2.739 37.059-8.141h25.301c1.229 0 2.223-0.988 2.223-2.208v-17.69c15.43-16.468 23.936-37.899 23.936-60.469 s-8.506-44.001-23.936-60.469V37.95c0-1.221-0.994-2.217-2.223-2.217H158.01c-8.682-4.002-17.926-6.547-27.518-7.568 c-0.826-6.91-6.707-12.287-13.838-12.287c-7.602 0-13.779 6.109-13.922 13.67c-6.539 1.374-12.861 3.438-18.846 6.193H58.588 c-1.23 0-2.209 0.996-2.209 2.209v17.682C40.939 72.1 32.4 93.5 32.4 116.101s8.494 44 23.9 60.469V194.26z M116.654 20.293c5.242 0 9.5 4.3 9.5 9.491c0 0.051-0.018 0.253-0.018 0.304c-0.025 0.776-0.135 1.509-0.312 2.2 c-0.279 1 0.2 2.1 1.1 2.562c0 0 0.2 0.1 0.5 0.26c0.229 0.1 0.5 0.3 0.9 0.4 c0.346 0.2 0.8 0.4 1.2 0.597c2.039 1 5 2.5 7.7 3.801c7.822 3.8 8 3.8 8.6 3.8 c4.432 0 8.2 3 9.2 7.291H78.08c1.012-4.265 4.805-7.291 9.238-7.291c0.084 0 0.2 0 0.277-0.009 c0.102-0.007 0.219-0.024 0.379-0.058c0.076-0.009 0.16-0.034 0.254-0.05c0.117-0.035 0.262-0.077 0.42-0.128 c1.156-0.361 3.33-1.273 7.932-3.573h0.008c0.516-0.261 1.037-0.531 1.561-0.792c0.041-0.025 0.074-0.042 0.109-0.059 c0.486-0.254 0.969-0.489 1.432-0.734c0.041-0.023 0.084-0.042 0.127-0.067c0.969-0.504 1.889-0.985 2.73-1.424 c0.074-0.041 0.135-0.076 0.195-0.109c0.352-0.186 0.682-0.363 1.002-0.523c0.135-0.075 0.26-0.143 0.396-0.209 c0.219-0.12 0.422-0.228 0.613-0.329c0.725-0.389 1.299-0.69 1.645-0.876c0-0.01 0.008-0.018 0.008-0.018 c0.709-0.371 1.197-1.088 1.197-1.938c0-0.178-0.066-0.338-0.109-0.508c0-0.024 0-0.05-0.01-0.066 c-0.109-0.414-0.193-0.842-0.252-1.271c-0.051-0.396-0.084-0.793-0.084-1.207C107.148 24.6 111.4 20.3 116.7 20.293z M73.479 53.735c0.221 1 1.1 1.7 2.1 1.728h81.951c0.059 0 0.1 0 0.2 0c0.15 0 0.303-0.033 0.453-0.066 c0.053-0.018 0.111-0.01 0.17-0.018c0.219-0.076 0.438-0.177 0.633-0.312c0.463-0.319 0.773-0.8 0.883-1.331h3.195v124.301H70.033 V53.735H73.479z M60.805 40.159h21.709c-0.615 0.228-1.205 0.506-1.777 0.815c-0.152 0.086-0.303 0.179-0.455 0.3 c-0.455 0.252-0.895 0.547-1.307 0.867c-0.16 0.116-0.312 0.236-0.473 0.361c-0.48 0.396-0.936 0.817-1.375 1.3 c-0.031 0.043-0.082 0.086-0.117 0.127c-0.471 0.505-0.875 1.053-1.262 1.627c-0.104 0.16-0.193 0.319-0.289 0.5 c-0.277 0.454-0.529 0.918-0.748 1.398c-0.084 0.186-0.17 0.362-0.246 0.548c-0.186 0.439-0.346 0.901-0.479 1.363h-6.17 c-1.223 0-2.217 1.005-2.217 2.218v128.735c0 1.2 1 2.2 2.2 2.215h97.467c1.23 0 2.225-0.995 2.225-2.215V51.52 c0-1.223-0.994-2.218-2.225-2.218h-5.941c-0.051-0.201-0.119-0.396-0.193-0.598c-0.068-0.211-0.16-0.412-0.246-0.624 c-0.193-0.479-0.412-0.953-0.648-1.415c-0.102-0.192-0.211-0.405-0.336-0.59c-0.297-0.515-0.633-1.003-0.996-1.467 c-0.074-0.093-0.143-0.202-0.219-0.295c-0.455-0.538-0.951-1.036-1.484-1.501c-0.133-0.134-0.287-0.243-0.438-0.361 c-0.404-0.327-0.824-0.641-1.279-0.928c-0.195-0.125-0.391-0.245-0.584-0.353c-0.471-0.27-0.951-0.506-1.449-0.717 c-0.158-0.076-0.32-0.152-0.496-0.22c-0.059-0.024-0.111-0.052-0.17-0.075h6.744h23.547v16.322v119.228v16.326h-23.547H84.359 H60.805v-16.326V56.491V40.159z"/><path fill="#59595A" d="M116.654 34.538c2.428 0 4.383-1.965 4.383-4.383c0-2.411-1.955-4.385-4.383-4.385 c-2.41 0-4.381 1.965-4.381 4.385C112.273 32.6 114.2 34.5 116.7 34.538z M116.654 30.112v2.217l-0.031-2.174 C116.623 30.1 116.6 30.1 116.7 30.112z"/></g></g></svg>