<?xml version="1.0" encoding="utf-8"?>
<!-- Generator: Adobe Illustrator 16.0.4, SVG Export Plug-In . SVG Version: 6.00 Build 0)  -->
<!DOCTYPE svg PUBLIC "-//W3C//DTD SVG 1.1//EN" "http://www.w3.org/Graphics/SVG/1.1/DTD/svg11.dtd">
<svg version="1.1" id="Layer_1" xmlns="http://www.w3.org/2000/svg" xmlns:xlink="http://www.w3.org/1999/xlink" x="0px" y="0px"
	 width="270px" height="60px" viewBox="0 0 270 60" enable-background="new 0 0 270 60" xml:space="preserve">
<g>
	<g>
		<g>
			<g>
				<g>
					<path opacity="0.1184" fill="#1D1D1B" d="M26.169,38.604c-6.436-2.229-12.735-5.4-18.712-8.653
						c0.551,1.077,1.102,2.154,1.653,3.233c-0.438-1.761-0.876-3.519-1.313-5.276c0.04,1.177,0.082,2.353,0.123,3.529
						c4.447-7.407,10.159-13.968,16.744-19.546c2.483-0.792,4.982-1.013,7.498-0.665c0.048,0.003,2.223,0.26,2.471,0.177
						c0.873-0.081,1.518-0.509,1.938-1.285c1.006-1.121,0.741-3.668,0.745-4.991c-0.105-1.321-0.244-2.636-0.415-3.948
						c-1.55-0.02-3.101-0.042-4.651-0.061c-2.901,0.069-5.722,0.579-8.462,1.528c-5.132,1.359-9.358,4.778-13.08,8.363
						c-1.753,1.902-3.186,4.022-4.298,6.361c-2.002,3.507-2.317,7.585-2.627,11.496c-0.004,2.993,0.393,5.93,1.193,8.812
						c0.831,3.995,3.343,7.388,5.734,10.547c4.039,5.334,10.658,7.978,16.811,9.819c0.051-0.075,0.065-0.161,0.038-0.255
						c-0.354-3.145-0.515-6.3-0.482-9.47c0.025-2.713,0.865-5.196,1.765-7.712c0.004-0.008-1.254,0.481-1.249,0.479
						c-0.217,0.102-1.055,0.365-1.166,0.659c-0.738,1.96-1.123,3.524-1.221,5.611c0.165,0.896,0.331,1.791,0.497,2.685
						c0.602,2.585,1.168,5.174,1.701,7.773c-0.084-0.692-0.17-1.387-0.254-2.082c-2.417-0.634-4.726-1.545-6.925-2.732
						c-3.345-1.559-5.891-4.235-8.345-6.884c-2.567-2.771-3.748-6.478-4.857-9.974c-1.229-3.878-0.822-8.036-0.34-11.975
						c0.438-3.593,2.444-6.741,4.346-9.691c1.756-2.727,4.666-4.626,7.247-6.461c0.924-0.452,1.849-0.905,2.775-1.356
						c1.766-1.188,3.675-2.065,5.729-2.633c1.276-0.263,2.552-0.526,3.828-0.789c2.98-1.489,4.288-1.104,3.923,1.149
						c0.061,1.343,0.065,2.685-0.091,4.02c-0.195,1.658-1.771,1.907-3.137,1.888c-1.506-0.022-3.046,0.293-4.562,0.318
						c-0.448,0.008-0.954,0.188-1.378,0.293c-2.14,0.54-3.375,1.918-4.907,3.513c-2.436,2.538-4.519,5.426-7.021,7.897
						c-3.92,3.875-2.183,1.971-6.08,7.162c-0.25,0.335,0.927,3.037,1.24,3.333c1.621,1.542,4.208,2.334,6.187,3.281
						c4.296,2.057,8.744,4.094,13.231,5.697c-0.086-0.033-0.807-1.592-0.836-1.642C27.021,39.878,26.554,38.737,26.169,38.604z"/>
					<path opacity="0.1184" fill="#1D1D1B" d="M26.479,39.355c-6.431-2.25-12.731-5.409-18.71-8.659
						c0.339,0.612,0.677,1.221,1.016,1.833c-0.247-1.226-0.492-2.45-0.738-3.673c-0.014,0.858-0.028,1.716-0.043,2.575
						c1.441-2.201,2.952-4.349,4.533-6.45c2.993-4.108,6.947-7.663,10.716-11.081c1.881-2.084,4.358-2.824,7.436-2.217
						c1.39,0.075,2.779,0.279,4.169,0.385c2.307,0.169,2.554-2.929,2.717-4.435c0.036-1.285-0.036-2.566-0.216-3.84
						c-0.078-0.662-0.155-1.323-0.234-1.987c-3.037-0.213-6.058-0.078-9.062,0.41c-2.694,0.523-5.276,1.375-7.75,2.561
						c-3.69,1.489-6.564,4.119-9.377,6.821c-1.764,1.905-3.202,4.028-4.317,6.373c-2.014,3.516-2.332,7.599-2.646,11.524
						c-0.006,2.998,0.392,5.94,1.193,8.828c0.832,4.003,3.351,7.402,5.748,10.566c4.049,5.343,10.694,7.992,16.858,9.824
						c0.053-0.091,0.064-0.191,0.033-0.299c-0.32-3.159-0.48-6.325-0.484-9.503c0.008-2.712,0.847-5.179,1.754-7.69
						c0.007-0.014-1.193,0.457-1.187,0.451c-0.218,0.105-0.987,0.343-1.102,0.631c-0.766,1.929-1.178,3.474-1.316,5.542
						c0.159,0.872,0.318,1.741,0.478,2.613c0.623,2.649,1.19,5.307,1.704,7.981c-0.1-0.828-0.198-1.653-0.298-2.478
						c-2.386-0.609-4.665-1.495-6.836-2.657c-2.14-1.113-4.094-2.486-5.863-4.122c-3.899-3.153-5.903-7.795-7.446-12.388
						c-1.704-5.069-0.934-10.505,0.364-15.516c1.199-4.623,4.67-8.199,8.11-11.239c1.683-1.375,3.534-2.466,5.554-3.269
						c1.864-1.135,3.86-1.946,5.986-2.439c2.498-0.628,5.035-0.894,7.608-0.797c0.02,0.93-0.014,1.86-0.101,2.785
						c-0.121,1.838,0.055,3.034-1.467,4.271c-1.121,0.15-2.244,0.285-3.367,0.404c-0.97,0.108-2.148,0.066-3.112,0.247
						c-0.77,0.141-1.554,0.34-2.3,0.581c-1.439,0.468-2.689,2.126-3.664,3.137c-3.405,3.532-6.504,7.319-9.988,10.788
						c-2.353,2.345-3.154,2.06-3.207,4.57c-0.015,0.739,0.696,2.563,1.416,2.94c2.695,1.406,5.433,2.712,8.198,3.975
						c3.493,1.597,7.021,3.252,10.641,4.548c-0.026-0.008-0.604-1.243-0.616-1.259C27.128,40.279,26.8,39.468,26.479,39.355z"/>
					<path opacity="0.1184" fill="#1D1D1B" d="M26.074,38.054c-6.431-2.237-12.729-5.412-18.699-8.67
						c0.536,1.024,1.073,2.048,1.61,3.073c-0.407-1.706-0.814-3.411-1.221-5.116c0.034,1.118,0.069,2.234,0.104,3.352
						C12.462,23.33,18.16,16.949,24.78,11.404c2.459-0.717,4.927-0.902,7.402-0.551c-0.123-0.014,2.323,0.277,2.568,0.193
						c0.372-0.11,0.74-0.232,1.106-0.365c1.179-1.312,1.352-2.292,1.582-4.039c0.063-1.31,0.005-2.611-0.172-3.909
						c-0.083-0.676-0.166-1.351-0.249-2.026c-3.055-0.255-6.096-0.147-9.124,0.321c-2.734,0.509-5.359,1.354-7.875,2.536
						c-3.733,1.476-6.652,4.186-9.479,6.915c-1.758,1.93-3.204,4.069-4.34,6.419c-2.032,3.532-2.342,7.632-2.651,11.574
						c-0.004,3.015,0.395,5.971,1.197,8.872c0.836,4.033,3.359,7.458,5.769,10.649c4.075,5.398,10.754,8.064,16.975,9.911
						c0.048-0.039,0.065-0.094,0.048-0.161c-0.249-3.22-0.433-6.359-0.368-9.589c0.057-2.785,0.905-5.334,1.823-7.925
						c0.088-0.249-0.539,0.172-0.502,0.149c-0.314,0.186-1.129,0.515-1.253,0.895c-0.76,2.336-1.182,4.321-1.312,6.771
						c0.1,0.896,0.199,1.791,0.299,2.688c0.292,2.06,0.618,4.114,0.976,6.162c0.007-0.133,0.012-0.263,0.019-0.393
						c-2.518-0.645-4.929-1.567-7.234-2.765c-2.25-1.202-4.313-2.663-6.19-4.391c-4.082-3.302-6.088-8.321-7.626-13.135
						c-1.679-5.254-0.736-10.882,0.698-16.017c1.307-4.673,4.963-8.31,8.49-11.361c1.738-1.387,3.642-2.489,5.71-3.3
						c1.916-1.129,3.958-1.938,6.127-2.425c2.586-0.609,5.206-0.855,7.859-0.739c0.108,0.966,0.168,1.938,0.184,2.91
						c0.086,2.178,0.432,4.221-2.223,4.958c-0.783-0.058-1.568-0.052-2.352,0.017c-1.29,0.044-2.536,0.022-3.819-0.097
						c-1.532-0.138-3.199,1.154-4.267,1.982c-1.221,1.174-2.404,2.381-3.552,3.626c-1.836,2.021-3.691,4.025-5.565,6.01
						c-3.575,3.482-5.902,3.549-6.191,7.228c-0.051,0.656,0.623,1.73,0.862,2.314c0.189,0.459,0.372,0.994,0.855,1.243
						c2.697,1.406,5.437,2.704,8.206,3.961c3.492,1.583,7.015,3.239,10.623,4.54c-0.073-0.025-0.76-1.509-0.785-1.553
						C26.878,39.247,26.445,38.184,26.074,38.054z"/>
					<path opacity="0.1184" fill="#1D1D1B" d="M26.13,39.997c-6.411-2.248-12.689-5.403-18.65-8.648
						c0.196,0.349,0.393,0.698,0.591,1.043c-0.136-0.783-0.271-1.566-0.407-2.35c-0.033,0.252-0.068,0.501-0.101,0.753
						c4.819-5.755,9.968-11.142,15.56-16.155c1.903-2.07,4.395-2.782,7.477-2.137c1.364,0.108,2.713,0.337,4.078,0.443
						c2.363,0.185,2.591-2.948,2.753-4.487c0.041-1.285-0.023-2.561-0.192-3.834c-0.069-0.665-0.14-1.326-0.209-1.99
						C34,2.338,30.979,2.394,27.964,2.801c-2.758,0.479-5.413,1.295-7.962,2.453c-3.764,1.428-6.757,4.274-9.566,7.02
						c-1.76,1.94-3.199,4.097-4.315,6.466c-2.004,3.549-2.324,7.676-2.631,11.626c-0.004,3.015,0.4,5.977,1.215,8.878
						c0.847,4.036,3.38,7.446,5.799,10.641c4.072,5.373,10.788,8.025,16.993,9.846c0.051-0.1,0.06-0.208,0.026-0.321
						c-0.143-2.256-0.284-4.515-0.422-6.774c-0.236-3.814,0.555-6.965,1.958-10.575c0.014-0.036-1.139,0.41-1.272,0.714
						c-1.28,2.948-0.799,1.619-1.668,4.526c-0.435,1.487-0.457,2.981-0.068,4.487c0.342,2.17,0.71,4.335,1.104,6.497
						c-0.048-0.493-0.098-0.983-0.148-1.476c-2.388-0.628-4.667-1.534-6.837-2.71c-2.137-1.113-4.09-2.489-5.859-4.127
						c-3.893-3.15-5.961-7.729-7.571-12.308c-1.776-5.055-1.16-10.524-0.005-15.593c1.089-4.786,4.468-8.604,7.838-11.928
						c3.514-3.463,8.518-5.074,13.153-6.239c2.656-0.388,5.315-0.401,7.975-0.039c-0.011,1.08-0.079,2.157-0.204,3.23
						c-0.174,1.938-0.401,3.278-1.984,4.496c-1.081,0.21-2.172,0.327-3.271,0.349c-1.083,0.058-2.534-0.075-3.572,0.085
						c-1.481,0.233-2.37,0.817-3.532,1.755c-1.178,1.088-2.32,2.212-3.428,3.372c-2.072,2.198-4.188,4.357-6.346,6.472
						c-1.938,1.877-3.87,3.762-5.795,5.652c-0.245,0.238-0.229,0.623-0.272,0.93c-0.075,0.523,0.21,2.276,0.838,2.613
						c6.016,3.214,12.319,6.317,18.737,8.637C26.901,41.47,26.47,40.116,26.13,39.997z"/>
					<path opacity="0.1184" fill="#1D1D1B" d="M26.286,39.64c-6.429-2.245-12.727-5.404-18.708-8.648
						c0.353,0.639,0.705,1.279,1.057,1.916c-0.267-1.24-0.534-2.483-0.801-3.726c-0.011,0.866-0.022,1.733-0.033,2.6
						c1.415-2.212,2.902-4.374,4.464-6.483c2.945-4.122,6.938-7.704,10.692-11.128c1.879-2.093,4.361-2.848,7.445-2.27
						c1.395,0.069,2.789,0.282,4.184,0.376c2.303,0.158,2.521-2.901,2.676-4.416c0.032-1.271-0.038-2.536-0.21-3.798
						c-0.074-0.656-0.147-1.31-0.22-1.965c-3.021-0.213-6.026-0.081-9.015,0.401C25.135,3.03,22.563,3.886,20.1,5.068
						c-3.669,1.489-6.535,4.108-9.337,6.793c-1.762,1.899-3.203,4.017-4.32,6.353c-2.019,3.513-2.344,7.593-2.664,11.513
						c-0.01,2.998,0.385,5.943,1.182,8.831c0.826,4.003,3.348,7.405,5.745,10.569c4.046,5.343,10.691,7.981,16.854,9.811
						c0.052-0.111,0.062-0.227,0.027-0.352c-0.284-3.167-0.549-6.281-0.58-9.461c-0.025-2.688,0.841-5.152,1.752-7.629
						c0.004-0.008-1.233,0.471-1.229,0.468c-0.238,0.114-1.012,0.349-1.145,0.648c-0.831,1.86-1.301,3.352-1.514,5.376
						c0.195,0.83,0.389,1.664,0.584,2.494c0.797,2.674,1.458,5.384,1.978,8.127c-0.115-0.975-0.23-1.952-0.345-2.926
						c-2.343-0.623-4.576-1.522-6.698-2.693c-3.236-1.539-5.688-4.081-8.103-6.635c-2.508-2.655-3.711-6.278-4.817-9.645
						c-1.25-3.804-0.924-7.862-0.527-11.751c0.36-3.541,2.293-6.702,4.109-9.636c1.724-2.788,4.608-4.742,7.198-6.613
						c0.939-0.474,1.879-0.947,2.818-1.417c1.812-1.171,3.761-2.023,5.848-2.563c1.265-0.241,2.53-0.482,3.794-0.723
						c3.051-1.417,4.309-1.008,3.773,1.226c-0.04,1.318-0.123,2.644-0.37,3.939c-0.304,1.6-1.951,1.788-3.262,1.824
						c-1.559,0.044-3.332,0.246-4.858,0.606c-1.743,0.413-2.554,0.831-3.96,2.038c-2.022,1.736-3.741,4.069-5.474,6.071
						c-1.056,1.174-2.114,2.35-3.17,3.524c-2.39,2.09-4.37,4.526-5.939,7.302c-0.226,0.321,0.695,2.384,0.965,2.66
						c0.133,0.194,0.296,0.352,0.49,0.471c1.867,0.978,3.756,1.902,5.655,2.818c4.29,2.07,8.73,4.122,13.214,5.735
						c-0.039-0.014-0.645-1.314-0.66-1.34C26.976,40.637,26.622,39.756,26.286,39.64z"/>
					<path opacity="0.1184" fill="#1D1D1B" d="M26.306,38.962c-6.436-2.234-12.735-5.401-18.713-8.651
						c0.414,0.767,0.828,1.531,1.243,2.295c-0.385-1.049-0.77-2.101-1.154-3.15c0.231,0.972,0.464,1.943,0.696,2.915
						c-0.151-1.279-0.3-2.561-0.451-3.839c0.02,1.049,0.039,2.098,0.06,3.145c3.439-6.082,7.794-11.505,13.063-16.266
						c1.69-1.617,3.555-3.557,5.78-4.44c-0.892,0.238-1.783,0.476-2.673,0.714c3.689-0.642,6.889-0.266,10.461-0.005
						c1.606,0.116,2.124-1.553,2.536-2.69c0.804-2.212,0.057-5.282-0.206-7.527c-3.037-0.21-6.058-0.069-9.062,0.42
						c-3.973,0.421-7.757,2.608-11.175,4.477c-4.588,2.508-7.661,6.882-10.18,11.28c-2.8,4.892-2.695,10.663-2.328,16.059
						c0.379,5.592,3.336,10.456,6.609,14.774c4.036,5.326,10.65,7.97,16.797,9.805c0.052-0.088,0.063-0.188,0.033-0.293
						c-0.305-3.156-0.554-6.231-0.55-9.401c0.004-2.702,0.876-5.193,1.786-7.693c0,0-1.323,0.507-1.322,0.507
						c-0.232,0.108-1.113,0.376-1.239,0.684c-0.783,1.905-1.208,3.421-1.36,5.47c0.196,0.861,0.395,1.722,0.591,2.585
						c0.745,2.599,1.391,5.221,1.94,7.87c-0.098-0.811-0.196-1.623-0.295-2.434c-2.382-0.625-4.654-1.525-6.818-2.702
						c-3.297-1.544-5.801-4.158-8.235-6.766c-2.542-2.721-3.726-6.389-4.829-9.83c-1.232-3.848-0.849-7.961-0.392-11.875
						c0.418-3.568,2.404-6.705,4.284-9.639c1.735-2.71,4.63-4.598,7.193-6.422c0.918-0.445,1.835-0.891,2.753-1.34
						c1.741-1.182,3.626-2.054,5.655-2.613c1.261-0.266,2.522-0.531,3.781-0.797c2.973-1.476,4.248-1.107,3.824,1.11
						c0.02,1.31-0.001,2.622-0.18,3.92c-0.226,1.636-1.848,1.824-3.17,1.835c-1.853,0.014-3.916,0.288-5.729,0.75
						c-2.183,0.557-3.381,1.904-4.941,3.554c-2.39,2.53-4.426,5.409-6.894,7.862c-4.044,4.02-2.198,1.86-5.903,7.693
						c-0.213,0.335,1.203,2.995,1.582,3.192c2.705,1.403,5.452,2.705,8.227,3.961c3.503,1.589,7.04,3.244,10.663,4.54
						c-0.075-0.027-0.768-1.525-0.794-1.572C27.119,40.171,26.68,39.092,26.306,38.962z"/>
					<path opacity="0.1184" fill="#1D1D1B" d="M26.105,39.79c-6.397-2.237-12.673-5.39-18.623-8.618
						c0.25,0.465,0.5,0.93,0.749,1.396c-0.188-1.104-0.376-2.212-0.565-3.319c-0.028,0.612-0.057,1.221-0.084,1.833
						c4.645-6.054,9.722-11.607,15.394-16.72c1.896-2.084,4.388-2.818,7.479-2.195c1.373,0.097,2.736,0.313,4.111,0.415
						c2.317,0.172,2.533-2.951,2.684-4.454c0.021-1.276-0.045-2.546-0.199-3.812c-0.069-0.662-0.139-1.323-0.206-1.985
						c-3.024-0.257-6.036-0.161-9.037,0.291c-2.717,0.507-5.326,1.343-7.83,2.514c-3.725,1.464-6.651,4.183-9.466,6.904
						c-1.762,1.921-3.204,4.061-4.324,6.414c-2.015,3.532-2.333,7.637-2.644,11.574c-0.008,3.009,0.392,5.963,1.199,8.858
						c0.837,4.022,3.367,7.43,5.78,10.608c4.064,5.356,10.748,7.997,16.935,9.819c0.053-0.1,0.062-0.205,0.032-0.318
						c-0.235-3.195-0.471-6.351-0.487-9.553c-0.014-2.693,0.932-5.218,1.869-7.688c0.003-0.008-1.488,0.424-1.647,0.792
						c-0.907,2.09-1.466,3.834-1.765,6.087c0.125,0.833,0.249,1.667,0.374,2.503c0.529,2.621,1.028,5.248,1.502,7.881
						c-0.104-0.877-0.208-1.752-0.313-2.63c-2.378-0.628-4.648-1.531-6.809-2.71c-2.125-1.116-4.065-2.494-5.818-4.133
						c-3.86-3.153-5.88-7.732-7.44-12.302c-1.717-5.03-1.042-10.444,0.175-15.455c1.135-4.673,4.515-8.36,7.885-11.535
						c3.313-3.12,8.032-4.828,12.296-6.079c2.604-0.526,5.231-0.687,7.878-0.481c0.006,1.027-0.044,2.048-0.149,3.07
						c-0.145,1.904-0.169,3.189-1.73,4.435c-1.098,0.197-2.202,0.321-3.315,0.368c-1.071,0.078-2.414-0.02-3.459,0.146
						c-2.375,0.379-3.673,1.716-5.396,3.408c-3.648,3.582-7.006,7.455-10.648,11.048c-2.257,2.229-3.171,2.099-3.222,4.579
						c-0.01,0.454,0.327,1.041,0.49,1.448c0.395,0.988,0.998,1.14,2.01,1.674c3.059,1.623,6.231,3.029,9.387,4.452
						c2.668,1.201,5.327,2.444,8.083,3.435c0.011,0.003-0.48-1.03-0.48-1.032C26.633,40.506,26.388,39.889,26.105,39.79z"/>
					<path opacity="0.1184" fill="#1D1D1B" d="M26.414,38.649c-6.425-2.248-12.724-5.415-18.696-8.667
						c0.356,0.626,0.711,1.254,1.066,1.88c-0.333-0.7-0.665-1.403-0.998-2.104c0.297,0.789,0.594,1.578,0.891,2.367
						c-0.202-1.329-0.404-2.654-0.606-3.983c-0.005,0.889-0.013,1.777-0.018,2.663c1.456-2.242,2.983-4.432,4.583-6.574
						c2.913-4.036,7.019-7.591,10.754-10.946c1.881-2.079,4.358-2.788,7.43-2.126c1.373,0.083,2.749,0.263,4.121,0.382
						c2.277,0.199,2.594-2.976,2.776-4.438c0.054-1.304-0.01-2.6-0.191-3.892c-0.082-0.673-0.163-1.346-0.244-2.015
						c-3.052-0.241-6.09-0.127-9.113,0.346c-2.721,0.507-5.334,1.345-7.84,2.517c-3.766,1.486-6.687,4.122-9.541,6.876
						c-1.77,1.924-3.215,4.069-4.335,6.434c-2.013,3.538-2.327,7.648-2.637,11.59c-0.003,3.012,0.4,5.971,1.207,8.872
						c0.84,4.022,3.373,7.438,5.787,10.619c4.073,5.368,10.751,8.02,16.954,9.852c0.05-0.055,0.064-0.122,0.04-0.202
						c-0.31-3.167-0.44-6.342-0.389-9.525c0.047-2.765,0.912-5.298,1.836-7.861c0.09-0.25-0.548,0.168-0.516,0.149
						c-0.325,0.188-1.161,0.509-1.298,0.897c-0.792,2.248-1.243,4.144-1.413,6.516c0.111,0.877,0.222,1.752,0.332,2.63
						c0.349,2.179,0.729,4.352,1.142,6.522c-0.023-0.305-0.047-0.609-0.071-0.914c-2.479-0.617-4.853-1.514-7.123-2.685
						c-2.226-1.157-4.269-2.577-6.127-4.26c-4.069-3.236-6.127-8.127-7.723-12.88c-1.75-5.216-0.887-10.849,0.466-15.992
						c1.254-4.767,4.883-8.459,8.427-11.607c1.816-1.412,3.796-2.533,5.94-3.369c1.968-1.08,4.053-1.835,6.257-2.262
						c2.547-0.559,5.121-0.75,7.722-0.576c0.061,0.966,0.072,1.932,0.033,2.898c-0.035,2.367,0.26,4.872-3.28,4.745
						c-1.623,0.133-3.25,0.169-4.88,0.108c-0.212,0.014-0.422,0.053-0.627,0.116c-3.184,0.764-5.016,3.156-7.225,5.498
						c-3.715,3.939-7.381,7.845-11.303,11.585c-0.457,0.438-0.371,1.193-0.398,1.758c-0.036,0.734,0.757,2.644,1.471,3.018
						c2.689,1.406,5.42,2.708,8.181,3.964c3.484,1.589,6.997,3.245,10.6,4.54c-0.029-0.011-0.616-1.259-0.627-1.279
						C27.075,39.593,26.741,38.762,26.414,38.649z"/>
					<path opacity="0.1184" fill="#1D1D1B" d="M26.243,39.302c-6.432-2.237-12.729-5.398-18.709-8.643
						c0.388,0.709,0.775,1.42,1.163,2.132c-0.365-1.002-0.73-2.001-1.096-3.001c0.209,0.894,0.418,1.791,0.627,2.685
						c-0.133-1.201-0.266-2.4-0.398-3.601c0.005,0.96,0.011,1.921,0.015,2.881c4.208-6.671,9.29-12.579,15.094-17.88
						c1.87-2.087,4.343-2.843,7.419-2.267c1.392,0.066,2.785,0.263,4.177,0.36c2.281,0.161,2.539-2.896,2.712-4.393
						c0.045-1.276-0.02-2.549-0.195-3.814c-0.076-0.659-0.151-1.318-0.227-1.977c-3.026-0.21-6.036-0.075-9.031,0.41
						c-2.685,0.534-5.261,1.395-7.728,2.583c-3.665,1.492-6.523,4.113-9.323,6.798c-1.759,1.896-3.197,4.014-4.313,6.348
						c-2.012,3.51-2.333,7.588-2.649,11.505c-0.007,2.992,0.389,5.932,1.189,8.814c0.828,3.994,3.347,7.391,5.741,10.547
						c4.04,5.329,10.667,7.967,16.818,9.796c0.052-0.1,0.062-0.208,0.03-0.324c-0.296-3.153-0.557-6.242-0.572-9.409
						c-0.012-2.693,0.858-5.174,1.768-7.657c0.001-0.006-1.272,0.487-1.269,0.487c-0.237,0.11-1.055,0.36-1.187,0.664
						c-0.813,1.882-1.271,3.391-1.461,5.431c0.197,0.842,0.395,1.686,0.592,2.527c0.781,2.63,1.438,5.288,1.974,7.978
						c-0.106-0.894-0.213-1.791-0.321-2.688c-2.36-0.628-4.609-1.531-6.748-2.71c-3.26-1.544-5.729-4.125-8.146-6.705
						c-2.514-2.688-3.701-6.331-4.797-9.73c-1.233-3.82-0.877-7.893-0.448-11.787c0.39-3.543,2.347-6.686,4.192-9.608
						c1.723-2.735,4.597-4.648,7.157-6.497c0.923-0.457,1.845-0.917,2.768-1.376c1.771-1.185,3.685-2.057,5.74-2.616
						c1.265-0.255,2.53-0.512,3.797-0.77c3.016-1.456,4.287-1.069,3.809,1.163c-0.013,2.07,0.208,4.13-1.528,5.517
						c-0.654,0.083-1.308,0.166-1.962,0.249c-1.002,0.127-2.004,0.246-3.008,0.357c-0.753,0.086-1.257,0.066-1.947,0.23
						c-1.765,0.418-2.593,0.844-4.022,2.062c-2.039,1.739-3.768,4.117-5.504,6.135c-1.019,1.143-2.036,2.284-3.053,3.427
						c-2.375,2.096-4.364,4.515-5.967,7.261c-0.235,0.329,0.796,2.668,1.087,2.954c1.584,1.55,4.212,2.345,6.169,3.286
						c4.293,2.065,8.738,4.111,13.224,5.719c-0.06-0.02-0.718-1.439-0.739-1.476C27.005,40.426,26.601,39.427,26.243,39.302z"/>
					<path opacity="0.1184" fill="#1D1D1B" d="M26.464,39.673c-6.402-2.234-12.679-5.384-18.624-8.609
						c0.263,0.493,0.527,0.985,0.791,1.479c-0.202-1.129-0.406-2.259-0.607-3.389c-0.021,0.692-0.042,1.384-0.062,2.074
						c1.522-2.126,3.109-4.208,4.757-6.24c3.099-3.942,6.851-7.396,10.564-10.754c1.894-2.084,4.384-2.821,7.472-2.204
						c1.391,0.083,2.774,0.307,4.164,0.41c2.332,0.174,2.534-2.948,2.678-4.462c0.018-1.282-0.06-2.555-0.231-3.826
						c-0.073-0.659-0.148-1.32-0.223-1.979C34.114,1.942,31.1,2.067,28.1,2.538c-2.698,0.509-5.289,1.348-7.773,2.519
						c-3.714,1.473-6.618,4.139-9.434,6.854c-1.766,1.913-3.206,4.047-4.323,6.397c-2.011,3.527-2.33,7.621-2.64,11.552
						c-0.005,3.003,0.395,5.952,1.199,8.844c0.833,4.011,3.358,7.416,5.761,10.588c4.056,5.357,10.723,8.011,16.903,9.844
						c0.053-0.1,0.063-0.205,0.032-0.318c-0.295-3.175-0.457-6.358-0.487-9.55c-0.004-2.713,0.853-5.188,1.769-7.693
						c0.01-0.025-1.073,0.424-1.062,0.418c-0.22,0.108-0.862,0.318-0.976,0.592c-0.811,1.968-1.269,3.571-1.464,5.686
						c0.146,0.853,0.29,1.706,0.435,2.558c0.594,2.66,1.138,5.332,1.632,8.011c-0.105-0.877-0.209-1.755-0.312-2.635
						c-2.378-0.606-4.649-1.487-6.812-2.644c-2.134-1.099-4.084-2.461-5.852-4.086c-3.9-3.134-5.939-7.726-7.521-12.302
						c-1.745-5.052-1.04-10.502,0.197-15.532c1.43-5.819,6.103-10.124,10.771-13.415c1.995-1.038,4.018-2.018,6.071-2.94
						c2.282-0.814,4.632-1.315,7.05-1.509c3.092-1.295,4.357-0.811,3.795,1.459c-0.043,1.37-0.143,2.743-0.408,4.085
						c-0.429,2.157-3.036,1.86-4.667,2.029c-1.435,0.147-2.832,0.125-4.231,0.476c-0.818,0.208-1.279,0.379-2.001,0.825
						c-0.969,0.758-1.859,1.597-2.673,2.521c-1.347,1.429-2.663,2.885-3.949,4.369c-2.011,2.259-4.112,4.432-6.302,6.519
						c-1.124,0.836-2.097,1.805-2.922,2.904c-0.315,0.509-0.411,1.276-0.249,1.854c0.162,0.579,0.386,1.177,0.644,1.719
						c0.534,1.129,2.923,1.857,3.877,2.322c5.046,2.45,10.177,4.953,15.46,6.838c0.007,0.002-0.5-1.061-0.501-1.063
						C27.008,40.42,26.752,39.773,26.464,39.673z"/>
					<path opacity="0.1184" fill="#1D1D1B" d="M26.425,39.911c-6.41-2.248-12.687-5.401-18.646-8.64
						c0.196,0.346,0.393,0.695,0.589,1.041c-0.134-0.758-0.269-1.517-0.404-2.275c-0.033,0.269-0.066,0.534-0.1,0.803
						c4.796-5.808,9.904-11.239,15.522-16.271c1.909-2.076,4.406-2.791,7.495-2.14c1.372,0.097,2.733,0.333,4.105,0.44
						c2.371,0.188,2.594-2.957,2.745-4.501c0.026-1.285-0.05-2.566-0.227-3.84c-0.072-0.662-0.145-1.326-0.217-1.987
						c-3.027-0.269-6.044-0.197-9.053,0.221c-2.748,0.471-5.391,1.276-7.934,2.419c-3.773,1.423-6.769,4.252-9.581,7.001
						c-1.762,1.94-3.2,4.097-4.314,6.466C4.404,22.2,4.099,26.316,3.801,30.267c-0.003,3.015,0.401,5.977,1.21,8.881
						c0.841,4.027,3.382,7.443,5.796,10.627c4.072,5.373,10.778,8.036,16.983,9.863c0.051-0.097,0.06-0.202,0.026-0.313
						c-0.21-3.194-0.439-6.353-0.443-9.553c-0.003-2.738,0.966-5.282,1.934-7.784c0.003-0.008-1.311,0.451-1.46,0.8
						c-1.222,2.848-0.778,1.581-1.593,4.396c-0.409,1.484-0.404,2.973,0.01,4.468c0.417,2.414,0.853,4.825,1.305,7.233
						c-0.089-0.709-0.176-1.417-0.263-2.126c-3.646-1.166-6.668-2.539-9.953-4.501c-3.121-1.866-5.358-4.841-7.449-7.712
						c-2.315-3.178-3.096-7.081-3.891-10.824c-0.832-3.923-0.056-7.903,0.806-11.715c0.811-3.596,3.146-6.613,5.345-9.434
						c2.295-2.942,5.651-4.72,8.86-6.422c3.388-1.8,7.062-2.16,10.797-2.464c3.203-1.107,4.479-0.496,3.828,1.838
						c-0.116,0.991-0.21,1.985-0.282,2.981c-0.113,1.37-0.746,2.159-1.771,2.945c-0.645,0.086-1.292,0.172-1.938,0.26
						c-0.958,0.075-1.917,0.144-2.876,0.208c-1.39,0.094-2.346,0.042-3.66,0.501c-0.742,0.258-1.396,0.914-1.971,1.384
						c-1.972,1.617-3.679,3.723-5.409,5.581c-3.166,3.399-6.562,6.586-9.875,9.838c-0.433,0.426-0.176,1.821-0.17,2.09
						c0.007,0.31,0.458,1.282,0.735,1.429c6.01,3.2,12.305,6.289,18.713,8.598C27.184,41.354,26.756,40.025,26.425,39.911z"/>
				</g>
			</g>
		</g>
	</g>
	<path fill="#1D1D1B" d="M46.192,17.784h1.374V30.63l14.037-12.847h1.781l-10.19,9.284l10.816,13.034h-1.72L52.193,28.006
		l-4.627,4.218v7.877h-1.374V17.784z"/>
	<path fill="#1D1D1B" d="M65.418,21.003v-3.22h1.188v3.22H65.418z M65.418,40.102V24.035h1.188v16.066H65.418z"/>
	<path fill="#1D1D1B" d="M71.576,27.6h0.095c0.623-2.095,3.25-3.783,6.157-3.658v1.188c-1.249-0.156-3.001,0.156-4.439,1.563
		c-1.188,1.219-1.688,2.218-1.813,4.625v8.783h-1.187V24.035h1.187V27.6z"/>
	<path fill="#1D1D1B" d="M85.707,23.661c4.72,0,7.376,3.844,7.376,8.408c0,4.563-2.656,8.41-7.376,8.41
		c-4.721,0-7.377-3.846-7.377-8.41C78.33,27.505,80.986,23.661,85.707,23.661z M85.707,39.447c4.032,0,6.189-3.533,6.189-7.378
		c0-3.845-2.157-7.376-6.189-7.376c-4.033,0-6.189,3.532-6.189,7.376C79.518,35.914,81.674,39.447,85.707,39.447z"/>
	<path fill="#1D1D1B" d="M97.335,27.725h0.064c0.5-1.593,2.312-4.063,5.845-4.063c4.939,0,7.22,3.907,7.22,8.44
		c0,4.877-2.312,8.377-7.22,8.377c-2.657,0-4.909-1.125-5.845-3.72h-0.064v9.096h-1.187v-21.82h1.187V27.725z M109.276,32.101
		c0-3.658-1.719-7.409-6.032-7.409c-4.283,0-5.876,3.594-5.876,7.409c0,3.813,1.344,7.346,5.876,7.346
		C107.433,39.447,109.276,36.07,109.276,32.101z"/>
	<path fill="#1D1D1B" d="M114.436,27.6h0.094c0.625-2.095,3.25-3.783,6.158-3.658v1.188c-1.249-0.156-3,0.156-4.438,1.563
		c-1.188,1.219-1.688,2.218-1.814,4.625v8.783h-1.188V24.035h1.188V27.6z"/>
	<path fill="#1D1D1B" d="M133.787,37.133c0,0.938,0,1.938,1.062,1.938c0.22,0,0.501-0.032,0.876-0.094v1
		c-0.344,0.062-0.656,0.123-0.97,0.123c-1.874,0-2.156-1.03-2.156-2.343v-0.843h-0.061c-0.751,1.907-2.909,3.563-5.972,3.563
		c-3.033,0-5.376-1.158-5.376-4.533c0-3.751,3.25-4.533,5.908-4.752c5.312-0.375,5.532-0.719,5.532-3.345
		c0-0.72-0.811-3.157-4.47-3.157c-2.875,0-4.783,1.5-4.938,4.283h-1.189c0.157-3.533,2.345-5.314,6.127-5.314
		c2.813,0,5.627,0.875,5.627,4.188V37.133z M132.599,30.974c-0.938,1.064-3.501,0.939-5.813,1.25
		c-2.814,0.314-4.409,1.314-4.409,3.721c0,1.939,1.408,3.501,4.222,3.501c5.408,0,6-4.628,6-5.471V30.974z"/>
	<path fill="#1D1D1B" d="M137.633,17.784h1.188v14.786l9.909-8.534h1.72l-7.034,6.002l7.534,10.064h-1.626l-6.846-9.157
		l-3.657,3.094v6.063h-1.188V17.784z"/>
	<path fill="#1D1D1B" d="M157.952,25.067h-3.499v11.222c0,2.595,1.217,2.845,3.469,2.783v1.03c-2.439,0.159-4.784-0.186-4.66-3.812
		V25.067h-2.968v-1.032h2.968v-5.001h1.19v5.001h3.499V25.067z"/>
	<path fill="#1D1D1B" d="M166.769,23.661c4.721,0,7.377,3.844,7.377,8.408c0,4.563-2.657,8.41-7.377,8.41
		c-4.721,0-7.377-3.846-7.377-8.41C159.391,27.505,162.047,23.661,166.769,23.661z M166.769,39.447c4.032,0,6.189-3.533,6.189-7.378
		c0-3.845-2.158-7.376-6.189-7.376c-4.034,0-6.19,3.532-6.19,7.376C160.579,35.914,162.734,39.447,166.769,39.447z"/>
	<path fill="#1D1D1B" d="M178.117,27.6h0.094c0.625-2.095,3.251-3.783,6.158-3.658v1.188c-1.251-0.156-3.001,0.156-4.438,1.563
		c-1.188,1.219-1.689,2.218-1.813,4.625v8.783h-1.188V24.035h1.188V27.6z"/>
	<path fill="#1D1D1B" d="M185.682,17.784h1.187v14.786l9.91-8.534h1.718l-7.033,6.002l7.535,10.064h-1.626l-6.845-9.157
		l-3.659,3.094v6.063h-1.187V17.784z"/>
	<path fill="#1D1D1B" d="M200.562,32.225c-0.061,3.783,1.938,7.223,5.91,7.223c3.032,0,5.188-1.814,5.751-4.784h1.188
		c-0.625,3.751-3.126,5.815-6.939,5.815c-4.689,0-7.159-3.689-7.098-8.128c-0.062-4.407,2.251-8.689,7.098-8.689
		c5.032,0,7.283,3.97,7.064,8.563H200.562z M212.347,31.194c-0.062-3.375-2.187-6.501-5.875-6.501c-3.562,0-5.659,3.314-5.91,6.501
		H212.347z"/>
	<path fill="#1D1D1B" d="M228.73,36.665h-0.063c-1.314,2.532-3.282,3.813-6.159,3.813c-4.846,0-6.939-3.939-6.939-8.377
		c0-4.752,2.312-8.44,7.158-8.44c2.626,0,5.096,1.437,5.94,3.97h0.063v-9.848h1.186v22.318h-1.186V36.665z M228.697,32.101
		c0-3.751-1.844-7.409-5.971-7.409c-4.251,0-5.97,3.532-5.97,7.409c0,3.782,1.875,7.346,6.001,7.346
		C226.821,39.447,228.697,35.79,228.697,32.101z"/>
	<path fill="#1D1D1B" d="M235.17,24.035v17.788c0,2.157-0.532,4.032-3.283,4.032c-0.312,0-0.687,0-1-0.032v-1.031
		c0.188,0.031,0.438,0.063,0.781,0.063c1.688,0,2.314-0.688,2.314-3.125V24.035H235.17z"/>
	<path fill="#1D1D1B" d="M250.799,37.133c0,0.938,0,1.938,1.063,1.938c0.219,0,0.5-0.032,0.875-0.094v1
		c-0.344,0.062-0.656,0.123-0.97,0.123c-1.874,0-2.156-1.03-2.156-2.343v-0.843h-0.061c-0.753,1.907-2.909,3.563-5.971,3.563
		c-3.034,0-5.376-1.158-5.376-4.533c0-3.751,3.249-4.533,5.908-4.752c5.313-0.375,5.533-0.719,5.533-3.345
		c0-0.72-0.812-3.157-4.47-3.157c-2.876,0-4.783,1.5-4.939,4.283h-1.189c0.158-3.533,2.345-5.314,6.128-5.314
		c2.812,0,5.626,0.875,5.626,4.188V37.133z M249.612,30.974c-0.938,1.064-3.501,0.939-5.812,1.25
		c-2.816,0.314-4.41,1.314-4.41,3.721c0,1.939,1.407,3.501,4.221,3.501c5.408,0,6.001-4.628,6.001-5.471V30.974z"/>
	<path fill="#1D1D1B" d="M254.584,24.035h1.187v3.439h0.064c0.812-2.407,3.25-3.813,5.751-3.813c5.659,0,5.72,4.531,5.72,6.502
		v9.938h-1.188V29.944c0-1.658-0.185-5.251-4.562-5.251c-3.595,0-5.784,2.782-5.784,6.72v8.689h-1.187V24.035z"/>
	<g>
		<g>
			<path fill="#6F6F6E" d="M27.639,41.653c-3.41-0.912-15.749-6.628-19.153-8.459c-0.539-0.29-1.021-2.222-1.021-2.222
				c7.494-10.033,15.542-18.907,17.134-19.58c1.473-0.625,6.526-0.465,8.138-0.645c3.05-0.338,2.604-4.129,2.119-8.289
				C19.275,1.843,5.825,13.653,5.788,29.012c-0.036,14.838,9.631,24.333,21.82,27.37C26.608,50.497,25.778,47.203,27.639,41.653z"/>
			<path fill="#1D1D1B" d="M27.587,41.68l-2.729-0.942c-0.93-0.299-1.835-0.665-2.737-1.045c-1.803-0.751-3.637-1.465-5.407-2.287
				l-2.674-1.204c-0.891-0.403-1.786-0.793-2.664-1.231l-2.641-1.292l-0.33-0.163l-0.041-0.02l-0.021-0.01l-0.011-0.005l-0.058-0.04
				l-0.004-0.004l-0.068-0.061c-0.046-0.044-0.09-0.075-0.138-0.129c-0.095-0.126-0.203-0.275-0.271-0.402l-0.171-0.355
				c-0.2-0.476-0.352-0.946-0.484-1.438l-0.041-0.152l0.098-0.131c1.092-1.466,2.193-2.926,3.32-4.366
				c1.124-1.442,2.261-2.875,3.434-4.277c2.349-2.803,4.735-5.578,7.315-8.184c0.652-0.646,1.299-1.294,2.004-1.898
				c0.171-0.154,0.351-0.303,0.543-0.444c0.175-0.147,0.386-0.284,0.619-0.406c0.488-0.182,0.89-0.263,1.389-0.32
				c0.945-0.125,1.845-0.145,2.766-0.179l2.739-0.047c0.889-0.029,1.88,0.018,2.558-0.478c0.711-0.483,1.004-1.402,1.108-2.274
				c0.19-1.788-0.054-3.618-0.271-5.423l0.13,0.12l-2.546,0.042c-0.847,0.031-1.687,0.175-2.53,0.257
				c-0.848,0.06-1.663,0.324-2.496,0.475c-0.837,0.143-1.634,0.442-2.443,0.691c-0.4,0.136-0.813,0.238-1.203,0.403l-1.167,0.5
				l-1.166,0.5l-1.113,0.61l-1.111,0.611c-0.364,0.215-0.703,0.47-1.055,0.703c-0.7,0.474-1.408,0.935-2.037,1.502
				c-0.643,0.547-1.321,1.054-1.889,1.682c-0.578,0.613-1.223,1.166-1.723,1.848c-1.097,1.28-2.045,2.679-2.876,4.138
				c-0.369,0.754-0.813,1.473-1.13,2.251c-0.298,0.785-0.642,1.554-0.904,2.35l-0.666,2.428l-0.405,2.484
				c-0.078,0.834-0.097,1.675-0.149,2.511c-0.048,0.801,0.049,1.69,0.067,2.531c0.122,1.689,0.342,3.325,0.733,4.969
				c0.379,1.635,0.932,3.225,1.604,4.761c0.335,0.769,0.762,1.493,1.138,2.243c0.443,0.711,0.893,1.42,1.364,2.112
				c1.009,1.339,2.087,2.631,3.316,3.778c0.615,0.573,1.226,1.151,1.908,1.647l0.997,0.775l1.055,0.695
				c1.4,0.939,2.911,1.706,4.454,2.392c0.766,0.355,1.576,0.609,2.362,0.919c0.801,0.269,1.619,0.488,2.429,0.735l-0.31,0.287
				l-0.591-3.688c-0.097-0.615-0.162-1.239-0.244-1.858c-0.074-0.621-0.095-1.25-0.139-1.874c-0.003-0.627,0.008-1.255,0.028-1.881
				l0.104-0.935c0.043-0.31,0.049-0.625,0.123-0.93l0.194-0.918c0.072-0.304,0.111-0.616,0.212-0.912L27.587,41.68z M27.689,41.628
				l-0.498,1.836c-0.089,0.297-0.117,0.608-0.178,0.912l-0.16,0.915c-0.062,0.303-0.057,0.616-0.088,0.922l-0.069,0.923
				c0.002,0.618,0.012,1.235,0.037,1.851c0.068,0.615,0.106,1.231,0.188,1.844c0.094,0.613,0.168,1.226,0.277,1.837l0.66,3.671
				l0.071,0.395l-0.38-0.108c-0.826-0.235-1.661-0.443-2.481-0.701c-0.806-0.299-1.634-0.542-2.422-0.89
				c-1.585-0.669-3.143-1.423-4.595-2.357l-1.095-0.692l-1.038-0.775c-0.709-0.497-1.349-1.079-1.994-1.657
				c-0.671-0.55-1.223-1.224-1.832-1.84c-0.592-0.633-1.085-1.35-1.632-2.022c-0.49-0.713-0.958-1.445-1.417-2.18
				c-0.392-0.772-0.835-1.521-1.184-2.314c-0.7-1.586-1.276-3.228-1.673-4.914c-0.403-1.674-0.658-3.427-0.755-5.139
				c-0.011-0.864-0.101-1.68-0.046-2.582c0.06-0.864,0.088-1.732,0.176-2.593l0.44-2.562l0.708-2.5
				c0.277-0.819,0.637-1.61,0.952-2.416c0.335-0.797,0.792-1.538,1.187-2.307c0.882-1.486,1.882-2.903,3.029-4.195
				c0.525-0.688,1.195-1.244,1.797-1.859c0.592-0.63,1.294-1.137,1.96-1.682c0.652-0.566,1.382-1.025,2.104-1.494
				c0.363-0.231,0.713-0.484,1.086-0.696l1.142-0.601l1.14-0.602l1.191-0.494l1.191-0.492c0.397-0.162,0.818-0.261,1.226-0.394
				c0.824-0.242,1.634-0.534,2.484-0.669c0.846-0.143,1.673-0.399,2.533-0.449c0.854-0.072,1.705-0.207,2.561-0.228l2.571-0.008
				l0.119,0l0.012,0.121c0.173,1.814,0.472,3.635,0.286,5.491c-0.1,0.898-0.391,1.917-1.213,2.496
				c-0.854,0.599-1.829,0.502-2.727,0.568l-2.735,0.112c-0.902,0.053-1.83,0.101-2.692,0.236c-0.216,0.041-0.427,0.049-0.646,0.115
				c-0.201,0.066-0.477,0.125-0.617,0.198c-0.168,0.098-0.34,0.209-0.512,0.36c-0.174,0.133-0.342,0.279-0.506,0.435
				c-0.668,0.6-1.298,1.259-1.927,1.912c-2.48,2.66-4.861,5.423-7.176,8.236c-2.313,2.816-4.598,5.658-6.791,8.57l0.057-0.283
				c0.117,0.452,0.262,0.915,0.437,1.341l0.145,0.305c0.048,0.087,0.085,0.137,0.119,0.217c0.029,0.039,0.086,0.082,0.127,0.122
				l0.068,0.062l0.004,0.003c0.049,0.034-0.063-0.042-0.049-0.033l0.01,0.005l0.02,0.01l0.041,0.021l0.326,0.164l2.604,1.32
				c0.861,0.454,1.747,0.864,2.626,1.285l2.641,1.261c1.756,0.858,3.548,1.604,5.316,2.433c0.884,0.413,1.774,0.812,2.694,1.146
				L27.689,41.628z"/>
		</g>
		<g>
			<path fill="#6F6F6E" d="M30.376,36.557C30.404,36.506,29.911,37.733,30.376,36.557c-1.66-5.538-4.298-13.699-5.025-14.791
				c-0.625-0.937-9.84,8.466-9.84,8.466s8.605,4.19,14.583,6.884C30.186,36.929,30.279,36.742,30.376,36.557z"/>
			<path fill="#1D1D1B" d="M30.39,36.517c0.049,0.125,0,0.073,0.005,0.117l-0.024,0.065l-0.05,0.129l-0.101,0.258l-0.001,0.002
				l-0.089-0.023l0.002-0.011v-0.001l0.001-0.002l0.002-0.005l0.003-0.008l0.006-0.016l0.012-0.033l0.024-0.064l0.049-0.128
				l0.099-0.257l-0.001,0.034c-0.726-2.286-1.66-4.504-2.438-6.769c-0.406-1.127-0.735-2.279-1.115-3.413
				c-0.342-1.146-0.686-2.296-1.085-3.417c-0.093-0.287-0.195-0.561-0.327-0.815l-0.092-0.196l-0.046-0.098
				c0.057,0.053-0.036-0.023-0.047-0.028c0.035,0.042-0.167,0.043-0.273,0.118c-0.507,0.253-1,0.614-1.456,0.992
				c-0.921,0.758-1.798,1.574-2.643,2.422c-1.69,1.695-3.338,3.436-5.003,5.15l-0.112-0.65c1.222,0.558,2.449,1.103,3.661,1.681
				c1.215,0.571,2.423,1.156,3.621,1.765c1.2,0.605,2.385,1.241,3.564,1.892c1.185,0.639,2.365,1.288,3.579,1.866l-0.065,0.023
				l0.324-0.621L30.39,36.517z M30.386,36.633l-0.248,0.505l-0.021,0.043l-0.043-0.02c-1.217-0.569-2.467-1.068-3.712-1.577
				c-1.251-0.496-2.497-1.007-3.728-1.55c-1.233-0.539-2.455-1.101-3.67-1.677c-1.219-0.569-2.421-1.172-3.63-1.761l-0.514-0.25
				l0.401-0.4c1.704-1.698,3.477-3.319,5.3-4.887c0.917-0.777,1.817-1.573,2.762-2.321c0.485-0.36,0.931-0.762,1.492-1.056
				c0.072-0.036,0.141-0.073,0.23-0.097c0.048-0.011,0.071-0.03,0.14-0.034c0.071-0.003,0.151,0.009,0.214,0.028
				c0.047,0.041,0.027-0.003,0.129,0.107l0.054,0.103l0.107,0.207c0.147,0.277,0.291,0.55,0.402,0.827
				c0.985,2.206,1.826,4.458,2.53,6.753c0.691,2.3,1.188,4.658,1.845,6.964l0.005,0.018l-0.006,0.016l-0.103,0.255l-0.052,0.127
				l-0.025,0.064l-0.013,0.032l-0.006,0.016l-0.003,0.008l-0.001,0.003l0,0.001h0l0.002-0.011l-0.089-0.024l0,0l0.104-0.252
				l0.051-0.128l0.025-0.063c0.02,0.003-0.008-0.098,0.049-0.007L30.386,36.633z"/>
		</g>
	</g>
	<g>
		<path fill="#F29100" d="M38.118,15.95c0,0,0.232,0.452,0.546,1.25c0.329,0.795,0.711,1.947,1.081,3.339
			c0.381,1.392,0.715,3.029,0.932,4.8c0.117,0.884,0.218,1.8,0.29,2.732c0.108,0.918,0.051,1.921,0.057,2.891
			c-0.032,0.977-0.058,1.955-0.131,2.912c-0.081,0.956-0.26,1.823-0.412,2.699c-0.161,0.871-0.341,1.701-0.521,2.481
			c-0.179,0.78-0.399,1.533-0.566,2.201c-0.17,0.668-0.343,1.289-0.514,1.845c-0.191,0.561-0.265,1.028-0.383,1.439
			c-0.208,0.813-0.377,1.313-0.377,1.313s-0.228-0.434-0.537-1.256c-0.134-0.407-0.383-0.93-0.482-1.51
			c-0.128-0.584-0.253-1.25-0.371-1.985c-0.113-0.734-0.165-1.495-0.226-2.319c-0.052-0.823-0.088-1.684-0.091-2.561
			c-0.014-0.873,0.021-1.81,0.027-2.693c-0.036-0.886-0.023-1.78-0.017-2.674c0.018-0.901,0.091-1.771,0.086-2.694
			c0.007-0.91,0.044-1.806,0.101-2.676c0.122-1.738,0.292-3.373,0.485-4.784c0.199-1.41,0.462-2.596,0.661-3.434
			C37.952,16.432,38.118,15.95,38.118,15.95z"/>
	</g>
	<g>
		<path fill="#F29100" d="M33.427,19.116c0,0,0.276,0.458,0.354,1.139c0.063,0.344,0.057,0.733,0.014,1.147
			c-0.04,0.414-0.174,0.84-0.317,1.257c-0.094,0.203-0.194,0.406-0.306,0.597c-0.111,0.193-0.217,0.379-0.359,0.545
			c-0.292,0.329-0.578,0.614-0.876,0.808c-0.638,0.379-1.137,0.437-1.137,0.437s0.041-0.563,0.212-1.118
			c0.035-0.147,0.053-0.324,0.097-0.485c0.041-0.164,0.088-0.33,0.148-0.493c0.099-0.342,0.212-0.704,0.369-1.042
			c0.125-0.36,0.311-0.695,0.48-1.025c0.171-0.328,0.374-0.627,0.563-0.889C33.04,19.475,33.427,19.116,33.427,19.116z"/>
	</g>
	<rect x="233.981" y="17.784" fill="#F29100" width="1.189" height="3.22"/>
</g>
</svg>
