<?xml version="1.0" encoding="utf-8"?>
<!-- Generator: Adobe Illustrator 16.0.4, SVG Export Plug-In . SVG Version: 6.00 Build 0)  -->
<!DOCTYPE svg PUBLIC "-//W3C//DTD SVG 1.1//EN" "http://www.w3.org/Graphics/SVG/1.1/DTD/svg11.dtd">
<svg version="1.1" id="Layer_1" xmlns="http://www.w3.org/2000/svg" xmlns:xlink="http://www.w3.org/1999/xlink" x="0px" y="0px"
	 width="766px" height="351.92px" viewBox="0 0 766 351.92" enable-background="new 0 0 766 351.92" xml:space="preserve">
<polygon fill="#D60013" points="317.146,162.286 230.26,165.38 312.758,169.964 "/>
<polygon fill="#D60013" points="306.754,180.543 219.661,183.642 302.471,188.243 "/>
<polygon fill="#D60013" points="296.362,198.957 209.375,202.009 292.081,206.604 "/>
<polygon fill="#D60013" points="286.183,217.27 199.09,220.375 281.698,224.965 "/>
<polygon fill="#D60013" points="392.65,70.128 281.748,74.074 392.962,80.252 "/>
<polygon fill="#D60013" points="391.942,52.003 292.32,55.497 392.258,61.229 "/>
<polygon fill="#D60013" points="391.237,34.526 302.473,37.445 391.657,42.399 "/>
<polygon fill="#D60013" points="390.634,16.581 312.836,19.183 390.947,23.796 "/>
<polygon fill="#D60013" points="390.134,2.08 322.465,2.08 390.236,5.673 "/>
<polygon fill="#D60013" points="275.687,235.585 188.804,238.73 273.912,238.73 "/>
<path fill="#D60013" d="M570.132,2.663H444.924l-3.55,6.285l62.656,3.322c0.731,0,0.731,1.044-0.313,1.044l-65.998,2.207
	l-6.37,11.139l62.237,3.676c0.835,0.104,0.626,1.253-0.104,1.253l-66.103,2.173l-6.161,10.666l62.133,3.452
	c1.358,0.104,1.358,1.253,0,1.253l-65.998,2.314l-6.266,11.155l61.926,3.552c1.357,0.104,1.253,1.358,0,1.358l-65.996,2.348
	l-6.372,11.019l62.03,3.446c0.94,0.104,1.044,1.253-0.209,1.253l-190.162,6.37l180.45,10.025c1.149,0,1.044,1.462-0.208,1.462
	l-190.475,6.788l180.45,10.025c0.835,0,1.044,1.358-0.209,1.358l-190.789,6.892l180.45,10.025c0.731,0.104,1.462,1.462-0.104,1.566
	l-190.475,6.788l180.45,10.025c0.522,0.104,1.044,1.462-0.209,1.462l-95.862,3.414l0.314,8.653l85.419,4.746
	c0.626,0.105,0.94,1.358-0.209,1.358l-84.896,3.02l0.412,9.673l74.146,4.119c0.73,0.104,1.044,1.566-0.209,1.566l-73.518,2.58
	l0.317,10.619l63.176,3.51c0.73,0.104,0.939,1.462-0.313,1.462l-62.551,2.23l0.416,11.682l52.215,2.901
	c0.73,0.104,0.73,1.357-0.313,1.357l-51.692,1.872l0.209,5.021h168.545c44.695,0,84.795-32.581,92.313-58.479
	c7.519-25.898,7.519-49.29-28.404-60.985c20.05-4.595,54.924-27.212,61.821-58.479C629.238,31.798,618.795,2.768,570.132,2.663z
	 M485.356,184.033H433.56l29.24-51.796h38.429C540.911,132.237,521.697,184.033,485.356,184.033z M552.39,72.916
	c-1.671,6.266-14.202,22.139-30.075,22.139h-38.429l24.645-43.442h19.632C553.225,52.448,554.061,66.65,552.39,72.916z"/>
<path fill="#D60013" d="M759.858,313.212c0-20.071-16.683-36.883-36.753-36.883c-20.593,0-37.405,17.073-37.405,38.057
	c0,20.853,16.682,37.535,37.535,37.535c15.249,0,29.715-10.426,34.016-24.632h-19.028c-3.779,5.995-8.732,8.732-15.509,8.732
	c-8.602,0-16.292-5.865-18.768-14.206h55C759.598,317.774,759.858,315.819,759.858,313.212z M703.427,308.19
	c2.477-9.774,10.296-16.031,19.94-16.031c9.645,0,17.204,6.126,19.55,16.031H703.427z"/>
<path fill="#D60013" d="M512.791,279.808v5.852c-5.474-5.865-13.399-9.202-21.871-9.202c-18.768,0-34.773,16.029-34.773,36.882
	c0,19.68,14.156,37.325,35.139,37.325c9.254,0,16.292-2.136,22.938-9.694v9.253h15.9v-70.416H512.791z M493.368,335.741
	c-12.071,0-21.857-9.786-21.857-21.857c0-12.071,9.786-21.857,21.857-21.857c12.071,0,21.856,9.786,21.856,21.857
	C515.224,325.956,505.438,335.741,493.368,335.741z"/>
<path fill="#D60013" d="M38.81,276.325c-7.168,0-12.642,2.477-18.637,8.602v-6.908H4.142v72.203h17.334v-34.016
	c0-9.254,0.782-23.981,13.554-23.981c11.99,0,13.294,13.815,13.294,22.678v35.319h17.334v-38.708
	c0-10.166-0.782-14.988-3.519-20.722C58.098,282.189,48.584,276.325,38.81,276.325z"/>
<path fill="#D60013" d="M146.516,313.212c0-20.071-16.682-36.883-36.753-36.883c-20.592,0-37.405,17.073-37.405,38.057
	c0,20.853,16.682,37.535,37.535,37.535c15.248,0,29.715-10.426,34.016-24.632h-19.028c-3.78,5.995-8.732,8.732-15.509,8.732
	c-8.602,0-16.291-5.865-18.768-14.206h55C146.255,317.774,146.516,315.819,146.516,313.212z M90.085,308.19
	c2.477-9.774,10.296-16.031,19.941-16.031c9.645,0,17.204,6.126,19.55,16.031H90.085z"/>
<rect x="431.716" y="253.852" fill="#D60013" width="17.334" height="96.314"/>
<path fill="#D60013" d="M575.861,276.325c-7.168,0-12.642,2.477-18.637,8.602v-6.908h-16.031v72.203h17.334v-34.016
	c0-9.254,0.782-23.981,13.554-23.981c11.991,0,13.294,13.815,13.294,22.678v35.319h17.333v-38.708
	c0-10.166-0.782-14.988-3.519-20.722C595.15,282.189,585.636,276.325,575.861,276.325z"/>
<path fill="#D60013" d="M645.974,292.229c7.95,0,12.512,2.607,16.812,9.905h19.55c-5.343-15.509-19.028-25.805-35.71-25.805
	c-21.113,0-38.056,16.812-38.056,37.535c0,20.853,17.073,38.057,38.056,38.057c10.687,0,21.244-4.692,28.412-12.642
	c3.649-4.04,4.953-6.386,7.298-12.772h-19.55c-4.04,6.256-9.253,9.514-15.77,9.514c-12.121,0-21.113-9.383-21.113-21.896
	C625.903,301.483,634.505,292.229,645.974,292.229z"/>
<polygon fill="#D60013" points="212.771,322.075 200.493,278.023 186.548,278.023 174.14,322.075 159.463,278.023 144.167,278.023 
	168.275,350.226 179.379,350.226 193.456,303.438 207.14,350.226 218.793,350.226 241.908,278.023 227.578,278.023 "/>
<path fill="#D60013" d="M305.641,276.401c-8.472,0-16.396,3.337-21.871,9.202v-31.75h-17.334v96.314h15.9v-9.253
	c6.647,7.559,13.685,9.694,22.938,9.694c20.983,0,35.139-17.645,35.139-37.325C340.414,292.431,324.408,276.401,305.641,276.401z
	 M303.193,335.741c-12.071,0-21.856-9.786-21.856-21.857c0-12.071,9.786-21.857,21.856-21.857c12.071,0,21.857,9.786,21.857,21.857
	C325.05,325.956,315.265,335.741,303.193,335.741z"/>
<path fill="#D60013" d="M402.801,279.808v5.852c-5.474-5.865-13.399-9.202-21.871-9.202c-18.768,0-34.773,16.029-34.773,36.882
	c0,19.68,14.156,37.325,35.139,37.325c9.253,0,16.291-2.136,22.938-9.694v9.253h15.9v-70.416H402.801z M383.377,335.741
	c-12.071,0-21.857-9.786-21.857-21.857c0-12.071,9.786-21.857,21.857-21.857c12.071,0,21.856,9.786,21.856,21.857
	C405.234,325.956,395.448,335.741,383.377,335.741z"/>
</svg>
