<?xml version="1.0" encoding="utf-8"?>
<!-- Generator: Adobe Illustrator 16.0.4, SVG Export Plug-In . SVG Version: 6.00 Build 0)  -->
<!DOCTYPE svg PUBLIC "-//W3C//DTD SVG 1.1//EN" "http://www.w3.org/Graphics/SVG/1.1/DTD/svg11.dtd">
<svg version="1.1" id="Layer_1" xmlns="http://www.w3.org/2000/svg" xmlns:xlink="http://www.w3.org/1999/xlink" x="0px" y="0px"
	 width="333.424px" height="115.824px" viewBox="209.576 118.048 333.424 115.824"
	 enable-background="new 209.576 118.048 333.424 115.824" xml:space="preserve">
<g>
	<polygon fill="#D60013" points="348.91,171.11 320.27,172.129 347.464,173.641 	"/>
	<polygon fill="#D60013" points="345.486,177.128 316.777,178.149 344.073,179.667 	"/>
	<polygon fill="#D60013" points="342.06,183.198 313.386,184.203 340.649,185.719 	"/>
	<polygon fill="#D60013" points="338.704,189.234 309.995,190.258 337.226,191.771 	"/>
	<polygon fill="#D60013" points="373.799,140.731 337.242,142.032 373.902,144.068 	"/>
	<polygon fill="#D60013" points="373.566,134.756 340.727,135.908 373.67,137.798 	"/>
	<polygon fill="#D60013" points="373.333,128.996 344.074,129.958 373.472,131.591 	"/>
	<polygon fill="#D60013" points="373.135,123.081 347.49,123.938 373.239,125.458 	"/>
	<polygon fill="#D60013" points="372.97,118.3 350.664,118.3 373.004,119.484 	"/>
	<polygon fill="#D60013" points="335.244,195.271 306.605,196.308 334.659,196.308 	"/>
	<path fill="#D60013" d="M432.303,118.492h-41.272l-1.17,2.072l20.653,1.095c0.241,0,0.241,0.344-0.103,0.344l-21.756,0.728
		l-2.099,3.672l20.515,1.212c0.275,0.034,0.207,0.413-0.035,0.413l-21.789,0.716l-2.03,3.516l20.48,1.138
		c0.447,0.034,0.447,0.413,0,0.413l-21.755,0.763l-2.065,3.677l20.413,1.171c0.447,0.034,0.412,0.447,0,0.447l-21.755,0.774
		l-2.101,3.632l20.447,1.136c0.31,0.034,0.345,0.413-0.069,0.413l-62.684,2.1l59.482,3.305c0.379,0,0.345,0.481-0.068,0.481
		l-62.787,2.238l59.482,3.305c0.275,0,0.344,0.448-0.069,0.448l-62.89,2.271l59.481,3.305c0.241,0.035,0.483,0.482-0.033,0.517
		l-62.788,2.237l59.482,3.305c0.173,0.034,0.345,0.482-0.067,0.482l-31.601,1.125l0.104,2.853l28.158,1.564
		c0.205,0.035,0.31,0.447-0.069,0.447l-27.985,0.997l0.136,3.188l24.441,1.357c0.24,0.033,0.345,0.517-0.069,0.517l-24.233,0.851
		l0.104,3.5l20.825,1.157c0.24,0.033,0.31,0.48-0.104,0.48l-20.618,0.736l0.137,3.85l17.212,0.958
		c0.241,0.033,0.241,0.447-0.103,0.447l-17.04,0.615l0.069,1.656h55.559c14.732,0,27.951-10.739,30.429-19.277
		c2.479-8.537,2.479-16.247-9.363-20.103c6.609-1.515,18.105-8.97,20.379-19.276C451.786,128.096,448.345,118.527,432.303,118.492z
		 M404.359,178.277h-17.074l9.64-17.073h12.667C422.671,161.205,416.338,178.277,404.359,178.277z M426.454,141.65
		c-0.55,2.065-4.681,7.298-9.913,7.298h-12.667l8.124-14.32h6.471C426.731,134.903,427.006,139.585,426.454,141.65z"/>
	<path fill="#D60013" d="M494.843,220.86c0-6.615-5.499-12.157-12.114-12.157c-6.788,0-12.33,5.627-12.33,12.544
		c0,6.873,5.499,12.373,12.373,12.373c5.026,0,9.794-3.437,11.212-8.12h-6.271c-1.246,1.977-2.879,2.879-5.112,2.879
		c-2.836,0-5.37-1.933-6.188-4.683h18.13C494.758,222.364,494.843,221.72,494.843,220.86z M476.242,219.205
		c0.816-3.224,3.394-5.285,6.572-5.285c3.18,0,5.672,2.021,6.444,5.285H476.242z"/>
	<path fill="#D60013" d="M413.403,209.849v1.929c-1.806-1.933-4.417-3.033-7.21-3.033c-6.187,0-11.462,5.285-11.462,12.158
		c0,6.487,4.666,12.305,11.582,12.305c3.051,0,5.37-0.705,7.562-3.195v3.049h5.241v-23.212H413.403z M406.999,228.286
		c-3.979,0-7.205-3.225-7.205-7.206c0-3.979,3.227-7.203,7.205-7.203c3.979,0,7.205,3.225,7.205,7.203
		C414.204,225.062,410.978,228.286,406.999,228.286z"/>
	<path fill="#D60013" d="M257.161,208.701c-2.362,0-4.167,0.815-6.144,2.835v-2.277h-5.284v23.802h5.714v-11.215
		c0-3.049,0.258-7.903,4.468-7.903c3.953,0,4.383,4.554,4.383,7.475v11.644h5.714v-12.76c0-3.352-0.258-4.94-1.16-6.832
		C263.52,210.634,260.383,208.701,257.161,208.701z"/>
	<path fill="#D60013" d="M292.665,220.86c0-6.615-5.499-12.157-12.115-12.157c-6.787,0-12.33,5.627-12.33,12.544
		c0,6.873,5.499,12.373,12.373,12.373c5.026,0,9.795-3.437,11.213-8.12h-6.272c-1.246,1.977-2.878,2.879-5.112,2.879
		c-2.835,0-5.37-1.933-6.187-4.683h18.13C292.579,222.364,292.665,221.72,292.665,220.86z M274.064,219.205
		c0.816-3.224,3.395-5.285,6.573-5.285c3.18,0,5.671,2.021,6.444,5.285H274.064z"/>
	<rect x="386.677" y="201.294" fill="#D60013" width="5.714" height="31.746"/>
	<path fill="#D60013" d="M434.192,208.701c-2.362,0-4.167,0.815-6.144,2.835v-2.277h-5.284v23.802h5.714v-11.215
		c0-3.049,0.258-7.903,4.469-7.903c3.952,0,4.382,4.554,4.382,7.475v11.644h5.713v-12.76c0-3.352-0.257-4.94-1.159-6.832
		C440.55,210.634,437.414,208.701,434.192,208.701z"/>
	<path fill="#D60013" d="M457.303,213.944c2.621,0,4.125,0.858,5.542,3.265h6.445c-1.762-5.113-6.273-8.506-11.772-8.506
		c-6.959,0-12.544,5.542-12.544,12.371c0,6.874,5.628,12.546,12.544,12.546c3.523,0,7.003-1.547,9.366-4.169
		c1.203-1.331,1.633-2.103,2.406-4.208h-6.445c-1.331,2.062-3.05,3.136-5.198,3.136c-3.996,0-6.959-3.094-6.959-7.218
		C450.688,216.993,453.524,213.944,457.303,213.944z"/>
	<polygon fill="#D60013" points="314.505,223.781 310.458,209.261 305.861,209.261 301.771,223.781 296.933,209.261 
		291.891,209.261 299.837,233.061 303.498,233.061 308.138,217.638 312.649,233.061 316.49,233.061 324.11,209.261 319.386,209.261 
			"/>
	<path fill="#D60013" d="M345.118,208.727c-2.793,0-5.405,1.101-7.21,3.033v-10.466h-5.714v31.748h5.241v-3.051
		c2.191,2.491,4.512,3.195,7.562,3.195c6.917,0,11.583-5.816,11.583-12.304C356.58,214.01,351.305,208.727,345.118,208.727z
		 M344.311,228.286c-3.979,0-7.204-3.225-7.204-7.206c0-3.979,3.227-7.203,7.204-7.203c3.979,0,7.205,3.225,7.205,7.203
		C351.516,225.062,348.29,228.286,344.311,228.286z"/>
	<path fill="#D60013" d="M377.146,209.849v1.929c-1.805-1.933-4.417-3.033-7.21-3.033c-6.187,0-11.462,5.285-11.462,12.158
		c0,6.487,4.666,12.305,11.583,12.305c3.05,0,5.37-0.705,7.561-3.195v3.049h5.241v-23.212H377.146z M370.742,228.286
		c-3.979,0-7.205-3.225-7.205-7.206c0-3.979,3.227-7.203,7.205-7.203c3.979,0,7.205,3.225,7.205,7.203
		C377.948,225.062,374.722,228.286,370.742,228.286z"/>
</g>
</svg>
