<svg xmlns="http://www.w3.org/2000/svg" xmlns:xlink="http://www.w3.org/1999/xlink" version="1.1" x="0px" y="0px" width="277.462px" height="250.431px" viewBox="0 0 277.462 250.431" enable-background="new 0 0 277.462 250.431" xml:space="preserve"><g></g><g><g><path fill="#59595A" d="M119.5 229.908c0 6.8 5.5 12.4 12.4 12.363c6.828 0 12.365-5.535 12.365-12.363v-20.569H119.5 V229.908z"/><path fill="#59595A" d="M130.785 176.773l-0.074-0.01l-0.076-0.012c-4.479-0.831-8.197-2.331-11.135-4.473v5.061h17.338 C134.902 177.2 132.9 177 130.8 176.773z"/><path fill="#59595A" d="M148.863 229.908c0 6.8 5.5 12.4 12.4 12.363c6.828 0 12.365-5.535 12.365-12.363v-20.569h-24.729 V229.908z"/><path fill="#59595A" d="M173.592 177.34v-2.705c-5.279 1.341-10.188 2.215-15.125 2.705H173.592z"/><path fill="#59595A" d="M140.865 110.845h-0.004h-0.004c-0.312 0-0.635-0.001-0.955-0.003l3.385 26.5 c10.588-0.704 21.457-3.004 30.305-4.882v-0.568v-18.939v-4.801C165.426 110 155 110.8 140.9 110.845z"/><path fill="#59595A" d="M64.113 102.951c-0.047-0.062-0.084-0.131-0.131-0.193c-1.781 1.467-2.918 3.689-2.918 6.2 c0 4.4 3.6 8 8 8.002c0.02 0 0 0 0.1 0c9.012 0 17.133-2.138 24.174-5.473l-19.637-2.843 C69.82 108.1 66.4 106.1 64.1 102.951z"/><path fill="#59595A" d="M126.141 86.921c3.039 0.4 5.8 1.8 7.9 3.853h0.068c2.26 0 4.4 0.1 6.5 0.07h0.248h0.895 c16.09 0 26.535-1.6 31.842-3.352v-7.954c1.645 1.6 3.1 3.2 4.1 4.576c0.418 0.6 0.7 1.1 1 1.6 c0.105 0.2 0.2 0.4 0.3 0.576c0.109 0.3 0.2 0.5 0.2 0.594c-0.24 0.253-0.877 0.805-2.258 1.465h-0.002 c-4.488 2.258-15.998 4.568-35.98 4.498c-2.164 0.002-4.432-0.023-6.803-0.07c-4.416-0.09-8.07 3.42-8.16 7.8 c-0.088 4.4 3.4 8.1 7.8 8.161c2.465 0.1 4.8 0.1 7.1 0.075c21.121-0.07 34.02-1.945 42.863-6.059 c0.01-0.004 0.02-0.008 0.029-0.012c2.242-1.076 4.26-2.365 5.99-3.951c0.789-0.724 1.525-1.503 2.184-2.362 c2.115-2.71 3.242-6.21 3.205-9.395c-0.078-5.349-2.373-9.384-4.824-12.79c-3.781-5.086-8.643-9.137-12.646-12.193 c-4-3.021-7.139-4.924-7.297-5.021c-0.656-0.397-1.348-0.683-2.053-0.873c-0.77-0.258-1.59-0.402-2.447-0.402h-38.635 c-0.48 0-0.949 0.05-1.404 0.134c-3.359-0.18-6.6 1.782-7.883 5.087h-0.002c0 0 0 0-0.016 0 c-0.322 0.845-4.748 11.418-13.113 21.256c-0.385 0.454-0.787 0.904-1.188 1.355L126.141 86.921z"/><circle fill="#59595A" cx="144.4" cy="29.6" r="22.5"/><circle fill="#59595A" cx="226.8" cy="130" r="22.5"/><path fill="#59595A" d="M186.471 168.625c14.598-5.16 19.127-17.574 16.926-26.094c-2.201-8.518-14.145-12.168-24.072-9.213 c-10.445 2.139-24.277 5.488-37.785 6.145l-3.654-28.633c-1.359-0.012-2.756-0.031-4.189-0.061 c-5.512-0.111-9.908-4.688-9.799-10.199c0.092-4.525 3.256-8.332 7.455-9.454c-1.59-1.141-3.459-1.922-5.496-2.217L77.521 81.9 c-6.832-0.99-13.174 3.748-14.16 10.58c-0.992 6.8 3.7 13.2 10.6 14.162l38.926 5.637l3.389 26.5 c11.916 3.8 24.3 5.8 36.9 5.792c18.098 0 30.014-4.06 30.131-4.101c1.08-0.377 2.188-0.564 3.307-0.564 c4.236 0 8 2.7 9.4 6.688c0.887 2.5 0.7 5.232-0.418 7.642c-1.156 2.408-3.18 4.222-5.699 5.1 c-2.604 0.887-16.361 5.223-36.754 5.231c-15.312 0-30.422-2.479-44.91-7.365c-2.529-0.854-4.578-2.642-5.762-5.036 c-1.188-2.393-1.371-5.104-0.516-7.635c0.748-2.221 2.225-4.039 4.105-5.238c-4.586-0.364-9.65-0.597-15.197-0.598 c-17.869 0-40.561 2.365-66.922 10.027c-6.629 1.926-10.443 8.861-8.516 15.491c1.588 5.5 6.6 9 12 9 c1.156 0 2.33-0.161 3.494-0.5h-0.002c23.998-6.97 44.271-9.03 59.947-9.032c10.688 0 19.2 1 25.3 2 c2.477 4.2 6.9 7.6 14.8 9.05C153.236 177.2 166.4 175.6 186.5 168.625z"/><path fill="#59595A" d="M103.816 145.215c-1.412 4.2 0.8 8.7 5 10.137c16.373 5.5 31.6 7.3 44.3 7.3 c21.396-0.009 35.492-4.916 36.09-5.117c4.168-1.465 6.359-6.03 4.895-10.199c-1.461-4.161-6.018-6.353-10.18-4.902l0 0 l-0.02 0.006v0.001c-0.58 0.201-12.746 4.22-30.785 4.212c-11.209 0-24.672-1.536-39.156-6.422 C109.766 138.8 105.2 141 103.8 145.215z"/><path fill="#808285" d="M214.064 155.605c-3.314 0-6 2.686-6 6v6.666c0 3.3 2.7 6 6 6h35c3.312 0 6-2.687 6-6v-6.666 c0-3.314-2.688-6-6-6H214.064z"/><path fill="#55767F" d="M13.396 207.339h8.6v34.933h10.969v-34.933h211.531v34.933h10.969v-34.933h8.6c3.314 0 6-2.688 6-6v-16 c0-3.314-2.686-6-6-6H13.396c-3.312 0-6 2.686-6 6v16C7.396 204.7 10.1 207.3 13.4 207.339z"/></g></g></svg>