<?xml version="1.0" encoding="utf-8"?>
<!-- Generator: Adobe Illustrator 15.1.0, SVG Export Plug-In . SVG Version: 6.00 Build 0)  -->
<!DOCTYPE svg PUBLIC "-//W3C//DTD SVG 1.1//EN" "http://www.w3.org/Graphics/SVG/1.1/DTD/svg11.dtd">
<svg version="1.1" id="Layer_1" xmlns="http://www.w3.org/2000/svg" xmlns:xlink="http://www.w3.org/1999/xlink" x="0px" y="0px"
	 width="346.842px" height="115.812px" viewBox="0 0 346.842 115.812" enable-background="new 0 0 346.842 115.812"
	 xml:space="preserve">
<g>
	<polygon fill="#008DA8" points="25.847,115.5 20.293,115.5 3.477,95.126 3.396,95.126 3.396,115.5 0,115.5 0,93.029 5.593,93.029 
		22.371,113.553 22.451,113.553 22.451,93.029 25.847,93.029 	"/>
	<g>
		<path fill="#008DA8" d="M42.586,92.85c7.47,0.06,9.747,1.917,9.747,7.55v8c0,5.304-2.556,7.281-9.747,7.281h-4.035
			c-7.189,0-9.747-1.978-9.747-7.281v-8c0-5.633,2.276-7.49,9.747-7.55H42.586z M38.551,95.096c-5.033,0-6.351,0.93-6.351,5.304v8
			c0,4.464,1.956,5.003,6.351,5.032h4.035c4.395-0.029,6.352-0.568,6.352-5.032v-8c0-4.374-1.318-5.304-6.352-5.304H38.551z"/>
		<path fill="#008DA8" d="M58.646,115.5H55.25V93.029h13.822c6.471,0,9.309,1.35,9.309,6.474c0,3.145-0.48,5.481-5.233,5.932v0.059
			c3.354,0.181,4.834,1.619,4.834,4.045v5.963h-3.397v-4.765c0-2.846-0.918-4.224-5.033-4.224H58.646V115.5z M69.112,104.265
			c5.233-0.12,5.873-1.318,5.873-5.034c0-2.876-0.521-3.954-5.873-3.954H58.646v8.988H69.112z"/>
		<path fill="#008DA8" d="M81.337,93.029h14.581c3.635,0,10.266,0.36,10.266,8.66v5.362c0,2.217-0.478,8.449-9.467,8.449h-15.38
			V93.029z M95.918,113.253c5.992,0,6.792-2.638,6.871-6.651v-5.904c0-1.257-0.6-5.421-6.312-5.421H84.732v17.977H95.918z"/>
		<rect x="108.982" y="93.029" fill="#008DA8" width="3.396" height="22.472"/>
		<path fill="#008DA8" d="M123.923,115.68c-5.474,0-8.709-2.576-8.709-7.07V99.92c0-6.353,5.233-7.07,12.503-7.07h2.797
			c6.271,0,8.189,2.036,8.189,6.471v0.72h-3.396v-0.63c0-3.146-0.879-4.314-5.274-4.314h-1.916c-7.03,0-9.508,0.629-9.508,4.735
			v6.172c0,5.124,0.279,7.429,5.953,7.429h4.034c5.433,0,7.11-0.568,7.11-3.775v-1.797h3.396v2.099
			c0,5.152-4.395,5.722-10.387,5.722H123.923z"/>
		<polygon fill="#54B948" points="174.339,115.5 169.185,115.5 161.355,95.277 161.274,95.277 153.325,115.5 148.252,115.5 
			139.064,93.029 142.539,93.029 150.688,113.553 150.769,113.553 158.838,93.029 163.832,93.029 171.821,113.553 171.901,113.553 
			180.25,93.029 183.766,93.029 		"/>
		<polygon fill="#54B948" points="188.282,102.917 203.462,102.917 203.462,105.014 188.282,105.014 188.282,113.252 
			204.141,113.252 204.141,115.5 184.887,115.5 184.887,93.029 204.141,93.029 204.141,95.277 188.282,95.277 		"/>
		<polygon fill="#54B948" points="210.813,113.253 226.074,113.253 226.074,115.5 207.419,115.5 207.419,93.029 210.813,93.029 		
			"/>
		<polygon fill="#54B948" points="232.107,113.253 247.367,113.253 247.367,115.5 228.712,115.5 228.712,93.029 232.107,93.029 		
			"/>
		<polygon fill="#54B948" points="275.771,115.5 270.218,115.5 253.4,95.126 253.32,95.126 253.32,115.5 249.926,115.5 
			249.926,93.029 255.517,93.029 272.296,113.553 272.376,113.553 272.376,93.029 275.771,93.029 		"/>
		<polygon fill="#54B948" points="282.325,102.917 297.503,102.917 297.503,105.014 282.325,105.014 282.325,113.252 
			298.183,113.252 298.183,115.5 278.928,115.5 278.928,93.029 298.183,93.029 298.183,95.277 282.325,95.277 		"/>
		<path fill="#54B948" d="M300.102,99.38c0-5.991,3.676-6.53,11.065-6.53c6.471,0,11.146,0.21,10.786,6.321h-3.396
			c-0.159-3.925-1.158-4.075-7.511-4.075c-6.63,0-7.55,0.63-7.55,3.745c0,4.284,2.717,3.926,8.31,4.046
			c7.11,0.299,10.705,0.149,10.705,6.231c0,6.353-3.994,6.562-11.544,6.562c-7.63,0-11.585-0.69-10.946-7.191h3.396
			c-0.079,4.942,1.199,4.942,7.551,4.942c6.393,0,8.149,0,8.149-4.403c0-4.284-2.557-3.565-8.03-3.896
			C305.176,104.775,300.102,105.313,300.102,99.38"/>
		<path fill="#54B948" d="M324.432,99.38c0-5.991,3.675-6.53,11.064-6.53c6.472,0,11.146,0.21,10.786,6.321h-3.395
			c-0.16-3.925-1.159-4.075-7.511-4.075c-6.631,0-7.551,0.63-7.551,3.745c0,4.284,2.718,3.926,8.31,4.046
			c7.11,0.299,10.706,0.149,10.706,6.231c0,6.353-3.994,6.562-11.544,6.562c-7.63,0-11.585-0.69-10.946-7.191h3.395
			c-0.078,4.942,1.199,4.942,7.552,4.942c6.392,0,8.148,0,8.148-4.403c0-4.284-2.557-3.565-8.029-3.896
			C329.506,104.775,324.432,105.313,324.432,99.38"/>
		<path fill="#54B948" d="M248.16,0.148l-0.432,1.504c-8.688,30.233-27.749,75.418-44.658,75.979l-0.181,0.006
			c-6.998-0.125-16.243-6.869-25.624-19.714c14.415-16.089,26.982-37.485,33.378-54.985l1.019-2.789h-27.824l-0.433,1.504
			c-3.638,12.66-9.095,27.939-15.451,41.467c-1.133-2.065-2.258-4.212-3.37-6.455c-2.322-4.695-4.539-9.664-6.625-14.843
			c-2.51-6.242-4.901-12.982-7.12-20.209l-3.972,1.217c5.209,17.074,11.746,32.397,18.849,44.904
			c-8.338,16.627-17.96,29.599-26.97,29.898l-0.17,0.005c-7.412-0.138-17.925-8.11-27.035-21.676
			c-10.068-14.99-16.777-28.475-25.287-55.324c-0.735,0.142-1.474,0.312-2.215,0.516c-0.063,0.02-0.127,0.036-0.188,0.054
			c-0.541,0.15-1.083,0.317-1.628,0.499c6.725,21.989,15.818,42.502,26.029,57.137c10.338,14.815,21.26,22.949,30.144,22.949
			l0.187-0.001l0.193,0.001c0.165,0,0.329-0.002,0.494-0.008c11.265-0.374,23.631-8.72,35.05-20.672
			c9.558,13.015,19.559,20.68,28.387,20.679h0.186h0.195h0.001c0.17,0,0.335-0.002,0.503-0.007
			c26.688-0.887,59.558-46.52,71.375-78.846l1.019-2.79H248.16z"/>
		<path fill="#008DA8" d="M185.721,23.099c-10.339-14.818-21.26-22.95-30.145-22.95h-0.186h-0.194c-0.165,0-0.329,0.002-0.493,0.008
			C128.015,1.043,95.146,46.675,83.33,79.002l-1.021,2.79h27.827l0.432-1.503c8.688-30.235,27.75-75.42,44.658-75.981l0.169-0.004
			c7.413,0.136,17.926,8.11,27.036,21.676c10.067,14.99,16.777,28.475,25.288,55.325c0.732-0.143,1.472-0.316,2.214-0.516
			c0.063-0.021,0.127-0.037,0.188-0.055c0.541-0.15,1.082-0.317,1.627-0.5C205.024,58.248,195.933,37.733,185.721,23.099"/>
	</g>
</g>
</svg>
